<svg xmlns="http://www.w3.org/2000/svg" xmlns:xlink="http://www.w3.org/1999/xlink" width="500" zoomAndPan="magnify" viewBox="0 0 375 374.999991" height="500" preserveAspectRatio="xMidYMid meet" version="1.0"><defs><g/><clipPath id="40a118670a"><path d="M 46.023438 119.628906 L 143.523438 119.628906 L 143.523438 207 L 46.023438 207 Z M 46.023438 119.628906 " clip-rule="nonzero"/></clipPath><clipPath id="f2526945b0"><path d="M 97.90625 206.058594 C 86.929688 201.703125 79.171875 191 79.171875 178.460938 C 79.171875 162.070312 92.457031 148.789062 108.84375 148.789062 C 118.710938 148.789062 127.441406 153.59375 132.851562 160.996094 L 139.023438 160.996094 C 136.171875 156.074219 132.128906 151.914062 127.304688 148.886719 C 127.34375 148.886719 127.363281 148.886719 127.382812 148.90625 L 129.023438 143.355469 L 131.621094 134.605469 L 127.558594 142.769531 L 125.15625 147.617188 C 125.175781 147.617188 125.195312 147.65625 125.195312 147.675781 C 120.703125 145.292969 115.640625 143.863281 110.269531 143.648438 L 109.664062 133.121094 L 108.882812 119.605469 L 108.101562 133.121094 L 107.496094 143.648438 C 102.164062 143.863281 97.164062 145.273438 92.710938 147.617188 L 88.726562 143.414062 L 82.453125 136.792969 L 87.496094 144.394531 L 90.484375 148.886719 C 86.050781 151.660156 82.277344 155.390625 79.464844 159.824219 L 73.976562 158.203125 L 65.1875 155.585938 L 73.351562 159.648438 L 78.117188 162.03125 C 75.597656 166.738281 74.132812 172.089844 74.015625 177.777344 L 62.121094 178.5 L 46.042969 179.476562 L 62.179688 180.082031 L 74.074219 180.53125 C 74.367188 185.628906 75.753906 190.433594 78.019531 194.710938 L 73.976562 198.539062 L 67.355469 204.808594 L 74.953125 199.769531 L 79.289062 196.898438 C 80.910156 199.476562 90.5625 207.132812 97.90625 206.058594 Z M 138.554688 178.460938 C 138.554688 182.855469 137.597656 187.015625 135.898438 190.746094 L 141.484375 190.746094 C 142.929688 186.917969 143.710938 182.777344 143.710938 178.460938 C 143.710938 174.121094 142.929688 169.980469 141.484375 166.171875 L 135.898438 166.171875 C 137.597656 169.921875 138.554688 174.082031 138.554688 178.460938 Z M 138.554688 178.460938 " clip-rule="nonzero"/></clipPath><linearGradient x1="24781.274136" gradientTransform="matrix(0.00636796, 0, 0, -0.00636796, -77.702402, -30.256469)" y1="-39349.277302" x2="31401.787738" gradientUnits="userSpaceOnUse" y2="-22245.362879" id="10dab03098"><stop stop-opacity="1" stop-color="rgb(94.099426%, 37.599182%, 31.399536%)" offset="0"/><stop stop-opacity="1" stop-color="rgb(94.099426%, 37.599182%, 31.399536%)" offset="0.125"/><stop stop-opacity="1" stop-color="rgb(94.099426%, 37.599182%, 31.399536%)" offset="0.1875"/><stop stop-opacity="1" stop-color="rgb(94.099426%, 37.599182%, 31.399536%)" offset="0.203125"/><stop stop-opacity="1" stop-color="rgb(94.110107%, 37.759399%, 31.32782%)" offset="0.210937"/><stop stop-opacity="1" stop-color="rgb(94.139099%, 38.200378%, 31.129456%)" offset="0.214844"/><stop stop-opacity="1" stop-color="rgb(94.15741%, 38.48114%, 31.004333%)" offset="0.21875"/><stop stop-opacity="1" stop-color="rgb(94.17572%, 38.761902%, 30.877686%)" offset="0.222656"/><stop stop-opacity="1" stop-color="rgb(94.194031%, 39.042664%, 30.751038%)" offset="0.226562"/><stop stop-opacity="1" stop-color="rgb(94.212341%, 39.323425%, 30.62439%)" offset="0.230469"/><stop stop-opacity="1" stop-color="rgb(94.230652%, 39.604187%, 30.499268%)" offset="0.234375"/><stop stop-opacity="1" stop-color="rgb(94.248962%, 39.884949%, 30.37262%)" offset="0.238281"/><stop stop-opacity="1" stop-color="rgb(94.267273%, 40.16571%, 30.247498%)" offset="0.242187"/><stop stop-opacity="1" stop-color="rgb(94.285583%, 40.446472%, 30.12085%)" offset="0.246094"/><stop stop-opacity="1" stop-color="rgb(94.303894%, 40.727234%, 29.995728%)" offset="0.25"/><stop stop-opacity="1" stop-color="rgb(94.322205%, 41.00647%, 29.86908%)" offset="0.253906"/><stop stop-opacity="1" stop-color="rgb(94.340515%, 41.287231%, 29.743958%)" offset="0.257812"/><stop stop-opacity="1" stop-color="rgb(94.358826%, 41.567993%, 29.61731%)" offset="0.261719"/><stop stop-opacity="1" stop-color="rgb(94.377136%, 41.848755%, 29.492188%)" offset="0.265625"/><stop stop-opacity="1" stop-color="rgb(94.395447%, 42.129517%, 29.36554%)" offset="0.269531"/><stop stop-opacity="1" stop-color="rgb(94.413757%, 42.410278%, 29.240417%)" offset="0.273437"/><stop stop-opacity="1" stop-color="rgb(94.432068%, 42.69104%, 29.11377%)" offset="0.277344"/><stop stop-opacity="1" stop-color="rgb(94.450378%, 42.971802%, 28.988647%)" offset="0.28125"/><stop stop-opacity="1" stop-color="rgb(94.468689%, 43.252563%, 28.862%)" offset="0.285156"/><stop stop-opacity="1" stop-color="rgb(94.487%, 43.533325%, 28.736877%)" offset="0.289062"/><stop stop-opacity="1" stop-color="rgb(94.50531%, 43.814087%, 28.610229%)" offset="0.292969"/><stop stop-opacity="1" stop-color="rgb(94.523621%, 44.094849%, 28.485107%)" offset="0.296875"/><stop stop-opacity="1" stop-color="rgb(94.541931%, 44.37561%, 28.358459%)" offset="0.300781"/><stop stop-opacity="1" stop-color="rgb(94.560242%, 44.656372%, 28.233337%)" offset="0.304687"/><stop stop-opacity="1" stop-color="rgb(94.578552%, 44.937134%, 28.106689%)" offset="0.308594"/><stop stop-opacity="1" stop-color="rgb(94.596863%, 45.217896%, 27.981567%)" offset="0.3125"/><stop stop-opacity="1" stop-color="rgb(94.615173%, 45.497131%, 27.854919%)" offset="0.316406"/><stop stop-opacity="1" stop-color="rgb(94.63501%, 45.777893%, 27.729797%)" offset="0.320312"/><stop stop-opacity="1" stop-color="rgb(94.65332%, 46.058655%, 27.603149%)" offset="0.324219"/><stop stop-opacity="1" stop-color="rgb(94.671631%, 46.339417%, 27.478027%)" offset="0.328125"/><stop stop-opacity="1" stop-color="rgb(94.689941%, 46.620178%, 27.351379%)" offset="0.332031"/><stop stop-opacity="1" stop-color="rgb(94.708252%, 46.90094%, 27.226257%)" offset="0.335937"/><stop stop-opacity="1" stop-color="rgb(94.726562%, 47.181702%, 27.099609%)" offset="0.339844"/><stop stop-opacity="1" stop-color="rgb(94.744873%, 47.462463%, 26.974487%)" offset="0.34375"/><stop stop-opacity="1" stop-color="rgb(94.763184%, 47.743225%, 26.847839%)" offset="0.347656"/><stop stop-opacity="1" stop-color="rgb(94.781494%, 48.023987%, 26.722717%)" offset="0.351562"/><stop stop-opacity="1" stop-color="rgb(94.799805%, 48.304749%, 26.596069%)" offset="0.355469"/><stop stop-opacity="1" stop-color="rgb(94.818115%, 48.58551%, 26.470947%)" offset="0.359375"/><stop stop-opacity="1" stop-color="rgb(94.836426%, 48.866272%, 26.344299%)" offset="0.363281"/><stop stop-opacity="1" stop-color="rgb(94.854736%, 49.147034%, 26.219177%)" offset="0.367188"/><stop stop-opacity="1" stop-color="rgb(94.873047%, 49.427795%, 26.092529%)" offset="0.371094"/><stop stop-opacity="1" stop-color="rgb(94.891357%, 49.708557%, 25.967407%)" offset="0.375"/><stop stop-opacity="1" stop-color="rgb(94.909668%, 49.989319%, 25.840759%)" offset="0.378906"/><stop stop-opacity="1" stop-color="rgb(94.927979%, 50.270081%, 25.715637%)" offset="0.382812"/><stop stop-opacity="1" stop-color="rgb(94.946289%, 50.549316%, 25.588989%)" offset="0.386719"/><stop stop-opacity="1" stop-color="rgb(94.9646%, 50.830078%, 25.463867%)" offset="0.390625"/><stop stop-opacity="1" stop-color="rgb(94.98291%, 51.11084%, 25.337219%)" offset="0.394531"/><stop stop-opacity="1" stop-color="rgb(95.001221%, 51.391602%, 25.212097%)" offset="0.398437"/><stop stop-opacity="1" stop-color="rgb(95.019531%, 51.672363%, 25.085449%)" offset="0.402344"/><stop stop-opacity="1" stop-color="rgb(95.037842%, 51.953125%, 24.960327%)" offset="0.40625"/><stop stop-opacity="1" stop-color="rgb(95.056152%, 52.233887%, 24.833679%)" offset="0.410156"/><stop stop-opacity="1" stop-color="rgb(95.074463%, 52.514648%, 24.708557%)" offset="0.414062"/><stop stop-opacity="1" stop-color="rgb(95.092773%, 52.79541%, 24.581909%)" offset="0.417969"/><stop stop-opacity="1" stop-color="rgb(95.111084%, 53.076172%, 24.456787%)" offset="0.421875"/><stop stop-opacity="1" stop-color="rgb(95.129395%, 53.356934%, 24.330139%)" offset="0.425781"/><stop stop-opacity="1" stop-color="rgb(95.147705%, 53.637695%, 24.205017%)" offset="0.429687"/><stop stop-opacity="1" stop-color="rgb(95.166016%, 53.918457%, 24.078369%)" offset="0.433594"/><stop stop-opacity="1" stop-color="rgb(95.185852%, 54.199219%, 23.953247%)" offset="0.4375"/><stop stop-opacity="1" stop-color="rgb(95.204163%, 54.47998%, 23.826599%)" offset="0.441406"/><stop stop-opacity="1" stop-color="rgb(95.222473%, 54.760742%, 23.701477%)" offset="0.445312"/><stop stop-opacity="1" stop-color="rgb(95.240784%, 55.039978%, 23.574829%)" offset="0.449219"/><stop stop-opacity="1" stop-color="rgb(95.259094%, 55.32074%, 23.449707%)" offset="0.453125"/><stop stop-opacity="1" stop-color="rgb(95.277405%, 55.601501%, 23.323059%)" offset="0.457031"/><stop stop-opacity="1" stop-color="rgb(95.295715%, 55.882263%, 23.197937%)" offset="0.460938"/><stop stop-opacity="1" stop-color="rgb(95.314026%, 56.163025%, 23.071289%)" offset="0.464844"/><stop stop-opacity="1" stop-color="rgb(95.332336%, 56.443787%, 22.946167%)" offset="0.46875"/><stop stop-opacity="1" stop-color="rgb(95.350647%, 56.724548%, 22.819519%)" offset="0.472656"/><stop stop-opacity="1" stop-color="rgb(95.368958%, 57.00531%, 22.692871%)" offset="0.476562"/><stop stop-opacity="1" stop-color="rgb(95.387268%, 57.286072%, 22.566223%)" offset="0.480469"/><stop stop-opacity="1" stop-color="rgb(95.405579%, 57.566833%, 22.441101%)" offset="0.484375"/><stop stop-opacity="1" stop-color="rgb(95.423889%, 57.847595%, 22.314453%)" offset="0.488281"/><stop stop-opacity="1" stop-color="rgb(95.4422%, 58.128357%, 22.189331%)" offset="0.492187"/><stop stop-opacity="1" stop-color="rgb(95.46051%, 58.409119%, 22.062683%)" offset="0.496094"/><stop stop-opacity="1" stop-color="rgb(95.478821%, 58.68988%, 21.937561%)" offset="0.5"/><stop stop-opacity="1" stop-color="rgb(95.497131%, 58.970642%, 21.810913%)" offset="0.503906"/><stop stop-opacity="1" stop-color="rgb(95.515442%, 59.251404%, 21.685791%)" offset="0.507812"/><stop stop-opacity="1" stop-color="rgb(95.533752%, 59.532166%, 21.559143%)" offset="0.511719"/><stop stop-opacity="1" stop-color="rgb(95.552063%, 59.812927%, 21.434021%)" offset="0.515625"/><stop stop-opacity="1" stop-color="rgb(95.570374%, 60.092163%, 21.307373%)" offset="0.519531"/><stop stop-opacity="1" stop-color="rgb(95.588684%, 60.372925%, 21.182251%)" offset="0.523438"/><stop stop-opacity="1" stop-color="rgb(95.606995%, 60.653687%, 21.055603%)" offset="0.527344"/><stop stop-opacity="1" stop-color="rgb(95.625305%, 60.934448%, 20.930481%)" offset="0.53125"/><stop stop-opacity="1" stop-color="rgb(95.643616%, 61.21521%, 20.803833%)" offset="0.535156"/><stop stop-opacity="1" stop-color="rgb(95.661926%, 61.495972%, 20.678711%)" offset="0.539062"/><stop stop-opacity="1" stop-color="rgb(95.680237%, 61.776733%, 20.552063%)" offset="0.542969"/><stop stop-opacity="1" stop-color="rgb(95.700073%, 62.057495%, 20.426941%)" offset="0.546875"/><stop stop-opacity="1" stop-color="rgb(95.718384%, 62.338257%, 20.300293%)" offset="0.550781"/><stop stop-opacity="1" stop-color="rgb(95.736694%, 62.619019%, 20.175171%)" offset="0.554687"/><stop stop-opacity="1" stop-color="rgb(95.755005%, 62.89978%, 20.048523%)" offset="0.558594"/><stop stop-opacity="1" stop-color="rgb(95.773315%, 63.180542%, 19.923401%)" offset="0.5625"/><stop stop-opacity="1" stop-color="rgb(95.791626%, 63.461304%, 19.796753%)" offset="0.566406"/><stop stop-opacity="1" stop-color="rgb(95.809937%, 63.742065%, 19.671631%)" offset="0.570312"/><stop stop-opacity="1" stop-color="rgb(95.828247%, 64.022827%, 19.544983%)" offset="0.574219"/><stop stop-opacity="1" stop-color="rgb(95.846558%, 64.303589%, 19.419861%)" offset="0.578125"/><stop stop-opacity="1" stop-color="rgb(95.864868%, 64.582825%, 19.293213%)" offset="0.582031"/><stop stop-opacity="1" stop-color="rgb(95.883179%, 64.863586%, 19.168091%)" offset="0.585938"/><stop stop-opacity="1" stop-color="rgb(95.901489%, 65.144348%, 19.041443%)" offset="0.589844"/><stop stop-opacity="1" stop-color="rgb(95.9198%, 65.42511%, 18.916321%)" offset="0.59375"/><stop stop-opacity="1" stop-color="rgb(95.93811%, 65.705872%, 18.789673%)" offset="0.597656"/><stop stop-opacity="1" stop-color="rgb(95.956421%, 65.986633%, 18.664551%)" offset="0.601562"/><stop stop-opacity="1" stop-color="rgb(95.974731%, 66.267395%, 18.537903%)" offset="0.605469"/><stop stop-opacity="1" stop-color="rgb(95.993042%, 66.548157%, 18.412781%)" offset="0.609375"/><stop stop-opacity="1" stop-color="rgb(96.011353%, 66.828918%, 18.286133%)" offset="0.613281"/><stop stop-opacity="1" stop-color="rgb(96.029663%, 67.10968%, 18.161011%)" offset="0.617187"/><stop stop-opacity="1" stop-color="rgb(96.047974%, 67.390442%, 18.034363%)" offset="0.621094"/><stop stop-opacity="1" stop-color="rgb(96.066284%, 67.671204%, 17.909241%)" offset="0.625"/><stop stop-opacity="1" stop-color="rgb(96.084595%, 67.951965%, 17.782593%)" offset="0.628906"/><stop stop-opacity="1" stop-color="rgb(96.102905%, 68.232727%, 17.657471%)" offset="0.632812"/><stop stop-opacity="1" stop-color="rgb(96.121216%, 68.513489%, 17.530823%)" offset="0.636719"/><stop stop-opacity="1" stop-color="rgb(96.139526%, 68.79425%, 17.405701%)" offset="0.640625"/><stop stop-opacity="1" stop-color="rgb(96.157837%, 69.075012%, 17.279053%)" offset="0.644531"/><stop stop-opacity="1" stop-color="rgb(96.176147%, 69.355774%, 17.153931%)" offset="0.648438"/><stop stop-opacity="1" stop-color="rgb(96.194458%, 69.63501%, 17.027283%)" offset="0.652344"/><stop stop-opacity="1" stop-color="rgb(96.212769%, 69.915771%, 16.902161%)" offset="0.65625"/><stop stop-opacity="1" stop-color="rgb(96.231079%, 70.196533%, 16.775513%)" offset="0.660156"/><stop stop-opacity="1" stop-color="rgb(96.250916%, 70.477295%, 16.650391%)" offset="0.664062"/><stop stop-opacity="1" stop-color="rgb(96.269226%, 70.758057%, 16.523743%)" offset="0.667969"/><stop stop-opacity="1" stop-color="rgb(96.287537%, 71.038818%, 16.398621%)" offset="0.671875"/><stop stop-opacity="1" stop-color="rgb(96.305847%, 71.31958%, 16.271973%)" offset="0.675781"/><stop stop-opacity="1" stop-color="rgb(96.324158%, 71.600342%, 16.146851%)" offset="0.679687"/><stop stop-opacity="1" stop-color="rgb(96.342468%, 71.881104%, 16.020203%)" offset="0.683594"/><stop stop-opacity="1" stop-color="rgb(96.360779%, 72.161865%, 15.895081%)" offset="0.6875"/><stop stop-opacity="1" stop-color="rgb(96.379089%, 72.442627%, 15.768433%)" offset="0.691406"/><stop stop-opacity="1" stop-color="rgb(96.3974%, 72.723389%, 15.643311%)" offset="0.695312"/><stop stop-opacity="1" stop-color="rgb(96.41571%, 73.00415%, 15.516663%)" offset="0.699219"/><stop stop-opacity="1" stop-color="rgb(96.434021%, 73.284912%, 15.391541%)" offset="0.703125"/><stop stop-opacity="1" stop-color="rgb(96.452332%, 73.565674%, 15.264893%)" offset="0.707031"/><stop stop-opacity="1" stop-color="rgb(96.470642%, 73.846436%, 15.139771%)" offset="0.710938"/><stop stop-opacity="1" stop-color="rgb(96.488953%, 74.125671%, 15.013123%)" offset="0.714844"/><stop stop-opacity="1" stop-color="rgb(96.507263%, 74.406433%, 14.888%)" offset="0.71875"/><stop stop-opacity="1" stop-color="rgb(96.525574%, 74.687195%, 14.761353%)" offset="0.722656"/><stop stop-opacity="1" stop-color="rgb(96.543884%, 74.967957%, 14.63623%)" offset="0.726562"/><stop stop-opacity="1" stop-color="rgb(96.562195%, 75.248718%, 14.509583%)" offset="0.730469"/><stop stop-opacity="1" stop-color="rgb(96.580505%, 75.52948%, 14.382935%)" offset="0.734375"/><stop stop-opacity="1" stop-color="rgb(96.598816%, 75.810242%, 14.256287%)" offset="0.738281"/><stop stop-opacity="1" stop-color="rgb(96.617126%, 76.091003%, 14.131165%)" offset="0.742188"/><stop stop-opacity="1" stop-color="rgb(96.635437%, 76.371765%, 14.004517%)" offset="0.746094"/><stop stop-opacity="1" stop-color="rgb(96.653748%, 76.652527%, 13.879395%)" offset="0.75"/><stop stop-opacity="1" stop-color="rgb(96.672058%, 76.933289%, 13.752747%)" offset="0.753906"/><stop stop-opacity="1" stop-color="rgb(96.690369%, 77.21405%, 13.627625%)" offset="0.757812"/><stop stop-opacity="1" stop-color="rgb(96.708679%, 77.494812%, 13.500977%)" offset="0.761719"/><stop stop-opacity="1" stop-color="rgb(96.72699%, 77.775574%, 13.375854%)" offset="0.765625"/><stop stop-opacity="1" stop-color="rgb(96.7453%, 78.056335%, 13.249207%)" offset="0.769531"/><stop stop-opacity="1" stop-color="rgb(96.763611%, 78.337097%, 13.124084%)" offset="0.773438"/><stop stop-opacity="1" stop-color="rgb(96.781921%, 78.616333%, 12.997437%)" offset="0.777344"/><stop stop-opacity="1" stop-color="rgb(96.801758%, 78.897095%, 12.872314%)" offset="0.78125"/><stop stop-opacity="1" stop-color="rgb(96.820068%, 79.177856%, 12.745667%)" offset="0.785156"/><stop stop-opacity="1" stop-color="rgb(96.838379%, 79.458618%, 12.620544%)" offset="0.789062"/><stop stop-opacity="1" stop-color="rgb(96.856689%, 79.73938%, 12.493896%)" offset="0.792969"/><stop stop-opacity="1" stop-color="rgb(96.875%, 80.020142%, 12.368774%)" offset="0.796875"/><stop stop-opacity="1" stop-color="rgb(96.887207%, 80.209351%, 12.283325%)" offset="0.8125"/><stop stop-opacity="1" stop-color="rgb(96.899414%, 80.39856%, 12.199402%)" offset="0.875"/><stop stop-opacity="1" stop-color="rgb(96.899414%, 80.39856%, 12.199402%)" offset="1"/></linearGradient><clipPath id="5891732026"><path d="M 84 195 L 140 195 L 140 215.605469 L 84 215.605469 Z M 84 195 " clip-rule="nonzero"/></clipPath></defs><g clip-path="url(#40a118670a)"><g clip-path="url(#f2526945b0)"><path fill="url(#10dab03098)" d="M 46.042969 207.132812 L 46.042969 119.628906 L 143.523438 119.628906 L 143.523438 207.132812 Z M 46.042969 207.132812 " fill-rule="nonzero"/></g></g><g clip-path="url(#5891732026)"><path fill="#000f52" d="M 84.171875 203.597656 C 86.324219 205.785156 88.863281 207.464844 91.636719 208.539062 L 89.15625 208.539062 C 87.359375 207.09375 85.679688 205.453125 84.171875 203.597656 Z M 124.492188 196.039062 L 117.8125 202.71875 L 115.484375 202.71875 C 117.167969 200.785156 118.515625 198.539062 119.414062 196.078125 Z M 133.242188 195.980469 L 126.503906 202.71875 L 119.277344 202.71875 L 125.957031 196.019531 Z M 135.625 202.71875 L 127.96875 202.71875 L 134.726562 195.960938 L 139.589844 195.921875 C 138.515625 198.363281 137.1875 200.648438 135.625 202.71875 Z M 121.09375 209.597656 L 128.574219 209.597656 C 124.746094 212.351562 120.3125 214.265625 115.542969 215.144531 Z M 122.128906 208.558594 L 126.933594 203.753906 L 134.824219 203.753906 C 133.359375 205.53125 131.738281 207.132812 129.960938 208.558594 Z M 113.433594 208.558594 L 118.242188 203.753906 L 125.46875 203.753906 L 120.664062 208.558594 Z M 111.96875 208.558594 L 107.183594 208.558594 C 109.9375 207.484375 112.4375 205.824219 114.507812 203.753906 L 116.777344 203.753906 Z M 106.441406 215.554688 L 112.398438 209.597656 L 119.628906 209.597656 L 113.804688 215.417969 C 111.324219 215.730469 108.863281 215.769531 106.441406 215.554688 Z M 97.339844 213.328125 L 100.679688 209.988281 C 101.675781 209.929688 102.691406 209.792969 103.6875 209.597656 L 110.933594 209.597656 L 105.132812 215.398438 C 102.457031 215.027344 99.839844 214.324219 97.339844 213.328125 Z M 90.542969 209.597656 L 95.152344 209.597656 C 96.480469 209.871094 97.808594 210.007812 99.175781 210.027344 L 96.304688 212.898438 C 94.292969 211.980469 92.359375 210.886719 90.542969 209.597656 Z M 90.542969 209.597656 " fill-opacity="1" fill-rule="nonzero"/></g><g fill="#000f52" fill-opacity="1"><g transform="translate(161.377245, 188.458288)"><g><path d="M 9.273438 0.460938 C 14.289062 0.460938 17.542969 -1.746094 17.542969 -5.6875 C 17.542969 -9.75 14.078125 -11.226562 10.347656 -11.914062 C 6.941406 -12.46875 5.253906 -13.242188 5.253906 -14.945312 C 5.253906 -16.230469 6.015625 -17.527344 9.09375 -17.527344 C 11.855469 -17.527344 13.0625 -16.257812 13.0625 -14.691406 L 16.78125 -14.691406 C 16.78125 -18.335938 14.199219 -20.78125 9.136719 -20.78125 C 3.867188 -20.78125 1.539062 -18.261719 1.539062 -14.960938 C 1.539062 -10.75 5.703125 -9.527344 9.109375 -8.824219 C 11.929688 -8.285156 13.78125 -7.585938 13.78125 -5.703125 C 13.78125 -3.6875 12.300781 -2.671875 9.257812 -2.671875 C 6.390625 -2.671875 4.734375 -4.195312 4.734375 -6.089844 L 1.015625 -6.089844 C 1.015625 -2.910156 3.402344 0.460938 9.273438 0.460938 Z M 9.273438 0.460938 "/></g></g></g><g fill="#000f52" fill-opacity="1"><g transform="translate(179.85912, 188.458288)"><g><path d="M 11.929688 0.433594 C 17.976562 0.433594 22.886719 -4.285156 22.886719 -10.183594 C 22.886719 -16.078125 17.976562 -20.78125 11.929688 -20.78125 C 5.882812 -20.78125 0.984375 -16.078125 0.984375 -10.183594 C 0.984375 -4.285156 5.882812 0.433594 11.929688 0.433594 Z M 11.929688 -2.984375 C 7.941406 -2.984375 4.703125 -6.046875 4.703125 -10.167969 C 4.703125 -14.304688 7.929688 -17.378906 11.929688 -17.378906 C 15.945312 -17.378906 19.1875 -14.316406 19.1875 -10.167969 C 19.1875 -6.046875 15.945312 -2.984375 11.929688 -2.984375 Z M 11.929688 -2.984375 "/></g></g></g><g fill="#000f52" fill-opacity="1"><g transform="translate(203.730304, 188.458288)"><g><path d="M 15.304688 0 L 15.304688 -3.328125 L 6.136719 -3.328125 L 6.136719 -20.304688 L 2.417969 -20.304688 L 2.417969 0 Z M 15.304688 0 "/></g></g></g><g fill="#000f52" fill-opacity="1"><g transform="translate(219.629499, 188.458288)"><g><path d="M 11.707031 0.433594 C 18.347656 0.433594 22.171875 -4.269531 22.125 -10.929688 L 11.527344 -10.929688 L 11.527344 -7.824219 L 18.09375 -7.824219 C 17.527344 -4.988281 15.304688 -2.984375 11.675781 -2.984375 C 7.839844 -2.984375 4.703125 -5.761719 4.703125 -10.167969 C 4.703125 -14.496094 7.839844 -17.378906 11.675781 -17.378906 C 14.558594 -17.378906 16.828125 -15.976562 17.886719 -13.601562 L 21.664062 -13.601562 C 20.707031 -18.171875 16.066406 -20.78125 11.765625 -20.78125 C 5.792969 -20.78125 1 -16.078125 1 -10.167969 C 1 -4.300781 5.792969 0.433594 11.707031 0.433594 Z M 11.707031 0.433594 "/></g></g></g><g fill="#000f52" fill-opacity="1"><g transform="translate(242.754243, 188.458288)"><g><path d="M 6.136719 0 L 6.136719 -20.304688 L 2.417969 -20.304688 L 2.417969 0 Z M 6.136719 0 "/></g></g></g><g fill="#000f52" fill-opacity="1"><g transform="translate(251.293526, 188.458288)"><g><path d="M 9.273438 0.460938 C 14.289062 0.460938 17.542969 -1.746094 17.542969 -5.6875 C 17.542969 -9.75 14.078125 -11.226562 10.347656 -11.914062 C 6.941406 -12.46875 5.253906 -13.242188 5.253906 -14.945312 C 5.253906 -16.230469 6.015625 -17.527344 9.09375 -17.527344 C 11.855469 -17.527344 13.0625 -16.257812 13.0625 -14.691406 L 16.78125 -14.691406 C 16.78125 -18.335938 14.199219 -20.78125 9.136719 -20.78125 C 3.867188 -20.78125 1.539062 -18.261719 1.539062 -14.960938 C 1.539062 -10.75 5.703125 -9.527344 9.109375 -8.824219 C 11.929688 -8.285156 13.78125 -7.585938 13.78125 -5.703125 C 13.78125 -3.6875 12.300781 -2.671875 9.257812 -2.671875 C 6.390625 -2.671875 4.734375 -4.195312 4.734375 -6.089844 L 1.015625 -6.089844 C 1.015625 -2.910156 3.402344 0.460938 9.273438 0.460938 Z M 9.273438 0.460938 "/></g></g></g></svg>