<svg xmlns="http://www.w3.org/2000/svg" xmlns:xlink="http://www.w3.org/1999/xlink" width="500" zoomAndPan="magnify" viewBox="0 0 375 374.999991" height="500" preserveAspectRatio="xMidYMid meet" version="1.0"><defs><g/><clipPath id="2683374ba4"><path d="M 59 54.191406 L 266.730469 54.191406 L 266.730469 239 L 59 239 Z M 59 54.191406 " clip-rule="nonzero"/></clipPath><clipPath id="0fc31405c9"><path d="M 169.238281 237.871094 C 145.90625 228.613281 129.425781 205.863281 129.425781 179.214844 C 129.425781 144.382812 157.65625 116.15625 192.484375 116.15625 C 213.449219 116.15625 232.003906 126.367188 243.503906 142.101562 L 256.621094 142.101562 C 250.558594 131.640625 241.964844 122.796875 231.714844 116.363281 C 231.796875 116.363281 231.835938 116.363281 231.878906 116.40625 L 235.367188 104.617188 L 240.886719 86.019531 L 232.253906 103.371094 L 227.148438 113.664062 C 227.1875 113.664062 227.230469 113.75 227.230469 113.789062 C 217.683594 108.726562 206.929688 105.695312 195.515625 105.238281 L 194.226562 82.863281 L 192.566406 54.136719 L 190.90625 82.863281 L 189.621094 105.238281 C 178.289062 105.695312 167.660156 108.683594 158.195312 113.664062 L 149.726562 104.742188 L 136.402344 90.667969 L 147.113281 106.816406 L 153.464844 116.363281 C 144.039062 122.257812 136.027344 130.1875 130.050781 139.609375 L 118.386719 136.164062 L 99.703125 130.601562 L 117.058594 139.238281 L 127.1875 144.300781 C 121.832031 154.304688 118.71875 165.679688 118.46875 177.761719 L 93.1875 179.296875 L 59.023438 181.371094 L 93.3125 182.660156 L 118.59375 183.613281 C 119.214844 194.449219 122.164062 204.660156 126.976562 213.75 L 118.386719 221.886719 L 104.3125 235.210938 L 120.460938 224.503906 L 129.675781 218.402344 C 133.121094 223.878906 153.628906 240.152344 169.238281 237.871094 Z M 255.625 179.214844 C 255.625 188.554688 253.589844 197.394531 249.976562 205.324219 L 261.851562 205.324219 C 264.921875 197.1875 266.582031 188.386719 266.582031 179.214844 C 266.582031 169.996094 264.921875 161.195312 261.851562 153.101562 L 249.976562 153.101562 C 253.589844 161.074219 255.625 169.914062 255.625 179.214844 Z M 255.625 179.214844 " clip-rule="nonzero"/></clipPath><linearGradient x1="24781.276066" gradientTransform="matrix(0.0135329, 0, 0, -0.0135329, -203.956881, -264.339404)" y1="-39349.272317" x2="31405.66897" gradientUnits="userSpaceOnUse" y2="-22235.335823" id="4aff077394"><stop stop-opacity="1" stop-color="rgb(94.099426%, 37.599182%, 31.399536%)" offset="0"/><stop stop-opacity="1" stop-color="rgb(94.099426%, 37.599182%, 31.399536%)" offset="0.125"/><stop stop-opacity="1" stop-color="rgb(94.099426%, 37.599182%, 31.399536%)" offset="0.1875"/><stop stop-opacity="1" stop-color="rgb(94.099426%, 37.599182%, 31.399536%)" offset="0.203125"/><stop stop-opacity="1" stop-color="rgb(94.110107%, 37.763977%, 31.324768%)" offset="0.210938"/><stop stop-opacity="1" stop-color="rgb(94.139099%, 38.209534%, 31.124878%)" offset="0.214844"/><stop stop-opacity="1" stop-color="rgb(94.15741%, 38.490295%, 30.999756%)" offset="0.21875"/><stop stop-opacity="1" stop-color="rgb(94.17572%, 38.771057%, 30.873108%)" offset="0.222656"/><stop stop-opacity="1" stop-color="rgb(94.194031%, 39.051819%, 30.747986%)" offset="0.226562"/><stop stop-opacity="1" stop-color="rgb(94.212341%, 39.332581%, 30.621338%)" offset="0.230469"/><stop stop-opacity="1" stop-color="rgb(94.230652%, 39.613342%, 30.496216%)" offset="0.234375"/><stop stop-opacity="1" stop-color="rgb(94.248962%, 39.894104%, 30.369568%)" offset="0.238281"/><stop stop-opacity="1" stop-color="rgb(94.267273%, 40.174866%, 30.24292%)" offset="0.242188"/><stop stop-opacity="1" stop-color="rgb(94.285583%, 40.455627%, 30.116272%)" offset="0.246094"/><stop stop-opacity="1" stop-color="rgb(94.303894%, 40.736389%, 29.99115%)" offset="0.25"/><stop stop-opacity="1" stop-color="rgb(94.322205%, 41.017151%, 29.864502%)" offset="0.253906"/><stop stop-opacity="1" stop-color="rgb(94.340515%, 41.299438%, 29.73938%)" offset="0.257812"/><stop stop-opacity="1" stop-color="rgb(94.358826%, 41.5802%, 29.612732%)" offset="0.261719"/><stop stop-opacity="1" stop-color="rgb(94.378662%, 41.860962%, 29.48761%)" offset="0.265625"/><stop stop-opacity="1" stop-color="rgb(94.396973%, 42.141724%, 29.360962%)" offset="0.269531"/><stop stop-opacity="1" stop-color="rgb(94.415283%, 42.422485%, 29.23584%)" offset="0.273438"/><stop stop-opacity="1" stop-color="rgb(94.433594%, 42.703247%, 29.109192%)" offset="0.277344"/><stop stop-opacity="1" stop-color="rgb(94.451904%, 42.984009%, 28.98407%)" offset="0.28125"/><stop stop-opacity="1" stop-color="rgb(94.470215%, 43.264771%, 28.857422%)" offset="0.285156"/><stop stop-opacity="1" stop-color="rgb(94.488525%, 43.545532%, 28.7323%)" offset="0.289062"/><stop stop-opacity="1" stop-color="rgb(94.506836%, 43.826294%, 28.605652%)" offset="0.292969"/><stop stop-opacity="1" stop-color="rgb(94.525146%, 44.107056%, 28.48053%)" offset="0.296875"/><stop stop-opacity="1" stop-color="rgb(94.543457%, 44.387817%, 28.353882%)" offset="0.300781"/><stop stop-opacity="1" stop-color="rgb(94.561768%, 44.668579%, 28.227234%)" offset="0.304688"/><stop stop-opacity="1" stop-color="rgb(94.580078%, 44.949341%, 28.100586%)" offset="0.308594"/><stop stop-opacity="1" stop-color="rgb(94.598389%, 45.230103%, 27.975464%)" offset="0.3125"/><stop stop-opacity="1" stop-color="rgb(94.616699%, 45.510864%, 27.848816%)" offset="0.316406"/><stop stop-opacity="1" stop-color="rgb(94.63501%, 45.791626%, 27.723694%)" offset="0.320312"/><stop stop-opacity="1" stop-color="rgb(94.65332%, 46.072388%, 27.597046%)" offset="0.324219"/><stop stop-opacity="1" stop-color="rgb(94.671631%, 46.353149%, 27.471924%)" offset="0.328125"/><stop stop-opacity="1" stop-color="rgb(94.689941%, 46.633911%, 27.345276%)" offset="0.332031"/><stop stop-opacity="1" stop-color="rgb(94.708252%, 46.916199%, 27.220154%)" offset="0.335938"/><stop stop-opacity="1" stop-color="rgb(94.726562%, 47.19696%, 27.093506%)" offset="0.339844"/><stop stop-opacity="1" stop-color="rgb(94.744873%, 47.477722%, 26.968384%)" offset="0.34375"/><stop stop-opacity="1" stop-color="rgb(94.763184%, 47.758484%, 26.841736%)" offset="0.347656"/><stop stop-opacity="1" stop-color="rgb(94.781494%, 48.039246%, 26.716614%)" offset="0.351562"/><stop stop-opacity="1" stop-color="rgb(94.799805%, 48.320007%, 26.589966%)" offset="0.355469"/><stop stop-opacity="1" stop-color="rgb(94.819641%, 48.600769%, 26.464844%)" offset="0.359375"/><stop stop-opacity="1" stop-color="rgb(94.837952%, 48.881531%, 26.338196%)" offset="0.363281"/><stop stop-opacity="1" stop-color="rgb(94.856262%, 49.162292%, 26.211548%)" offset="0.367188"/><stop stop-opacity="1" stop-color="rgb(94.874573%, 49.443054%, 26.0849%)" offset="0.371094"/><stop stop-opacity="1" stop-color="rgb(94.892883%, 49.723816%, 25.959778%)" offset="0.375"/><stop stop-opacity="1" stop-color="rgb(94.911194%, 50.004578%, 25.83313%)" offset="0.378906"/><stop stop-opacity="1" stop-color="rgb(94.929504%, 50.285339%, 25.708008%)" offset="0.382812"/><stop stop-opacity="1" stop-color="rgb(94.947815%, 50.566101%, 25.58136%)" offset="0.386719"/><stop stop-opacity="1" stop-color="rgb(94.966125%, 50.846863%, 25.456238%)" offset="0.390625"/><stop stop-opacity="1" stop-color="rgb(94.984436%, 51.127625%, 25.32959%)" offset="0.394531"/><stop stop-opacity="1" stop-color="rgb(95.002747%, 51.408386%, 25.204468%)" offset="0.398438"/><stop stop-opacity="1" stop-color="rgb(95.021057%, 51.689148%, 25.07782%)" offset="0.402344"/><stop stop-opacity="1" stop-color="rgb(95.039368%, 51.96991%, 24.952698%)" offset="0.40625"/><stop stop-opacity="1" stop-color="rgb(95.057678%, 52.250671%, 24.82605%)" offset="0.410156"/><stop stop-opacity="1" stop-color="rgb(95.075989%, 52.532959%, 24.700928%)" offset="0.414062"/><stop stop-opacity="1" stop-color="rgb(95.094299%, 52.813721%, 24.57428%)" offset="0.417969"/><stop stop-opacity="1" stop-color="rgb(95.11261%, 53.094482%, 24.447632%)" offset="0.421875"/><stop stop-opacity="1" stop-color="rgb(95.13092%, 53.375244%, 24.320984%)" offset="0.425781"/><stop stop-opacity="1" stop-color="rgb(95.149231%, 53.656006%, 24.195862%)" offset="0.429687"/><stop stop-opacity="1" stop-color="rgb(95.167542%, 53.936768%, 24.069214%)" offset="0.433594"/><stop stop-opacity="1" stop-color="rgb(95.185852%, 54.217529%, 23.944092%)" offset="0.4375"/><stop stop-opacity="1" stop-color="rgb(95.204163%, 54.498291%, 23.817444%)" offset="0.441406"/><stop stop-opacity="1" stop-color="rgb(95.222473%, 54.779053%, 23.692322%)" offset="0.445312"/><stop stop-opacity="1" stop-color="rgb(95.240784%, 55.059814%, 23.565674%)" offset="0.449219"/><stop stop-opacity="1" stop-color="rgb(95.26062%, 55.340576%, 23.440552%)" offset="0.453125"/><stop stop-opacity="1" stop-color="rgb(95.278931%, 55.621338%, 23.313904%)" offset="0.457031"/><stop stop-opacity="1" stop-color="rgb(95.297241%, 55.9021%, 23.188782%)" offset="0.460938"/><stop stop-opacity="1" stop-color="rgb(95.315552%, 56.182861%, 23.062134%)" offset="0.464844"/><stop stop-opacity="1" stop-color="rgb(95.333862%, 56.463623%, 22.937012%)" offset="0.46875"/><stop stop-opacity="1" stop-color="rgb(95.352173%, 56.744385%, 22.810364%)" offset="0.472656"/><stop stop-opacity="1" stop-color="rgb(95.370483%, 57.025146%, 22.685242%)" offset="0.476562"/><stop stop-opacity="1" stop-color="rgb(95.388794%, 57.305908%, 22.558594%)" offset="0.480469"/><stop stop-opacity="1" stop-color="rgb(95.407104%, 57.58667%, 22.431946%)" offset="0.484375"/><stop stop-opacity="1" stop-color="rgb(95.425415%, 57.867432%, 22.305298%)" offset="0.488281"/><stop stop-opacity="1" stop-color="rgb(95.443726%, 58.148193%, 22.180176%)" offset="0.492188"/><stop stop-opacity="1" stop-color="rgb(95.462036%, 58.428955%, 22.053528%)" offset="0.496094"/><stop stop-opacity="1" stop-color="rgb(95.480347%, 58.711243%, 21.928406%)" offset="0.5"/><stop stop-opacity="1" stop-color="rgb(95.498657%, 58.992004%, 21.801758%)" offset="0.503906"/><stop stop-opacity="1" stop-color="rgb(95.516968%, 59.272766%, 21.676636%)" offset="0.507812"/><stop stop-opacity="1" stop-color="rgb(95.535278%, 59.553528%, 21.549988%)" offset="0.511719"/><stop stop-opacity="1" stop-color="rgb(95.553589%, 59.83429%, 21.424866%)" offset="0.515625"/><stop stop-opacity="1" stop-color="rgb(95.571899%, 60.115051%, 21.298218%)" offset="0.519531"/><stop stop-opacity="1" stop-color="rgb(95.59021%, 60.395813%, 21.173096%)" offset="0.523438"/><stop stop-opacity="1" stop-color="rgb(95.608521%, 60.676575%, 21.046448%)" offset="0.527344"/><stop stop-opacity="1" stop-color="rgb(95.626831%, 60.957336%, 20.921326%)" offset="0.53125"/><stop stop-opacity="1" stop-color="rgb(95.645142%, 61.238098%, 20.794678%)" offset="0.535156"/><stop stop-opacity="1" stop-color="rgb(95.663452%, 61.51886%, 20.669556%)" offset="0.539062"/><stop stop-opacity="1" stop-color="rgb(95.681763%, 61.799622%, 20.542908%)" offset="0.542969"/><stop stop-opacity="1" stop-color="rgb(95.700073%, 62.080383%, 20.41626%)" offset="0.546875"/><stop stop-opacity="1" stop-color="rgb(95.718384%, 62.361145%, 20.289612%)" offset="0.550781"/><stop stop-opacity="1" stop-color="rgb(95.73822%, 62.641907%, 20.16449%)" offset="0.554688"/><stop stop-opacity="1" stop-color="rgb(95.756531%, 62.922668%, 20.037842%)" offset="0.558594"/><stop stop-opacity="1" stop-color="rgb(95.774841%, 63.20343%, 19.91272%)" offset="0.5625"/><stop stop-opacity="1" stop-color="rgb(95.793152%, 63.484192%, 19.786072%)" offset="0.566406"/><stop stop-opacity="1" stop-color="rgb(95.811462%, 63.764954%, 19.66095%)" offset="0.570312"/><stop stop-opacity="1" stop-color="rgb(95.829773%, 64.045715%, 19.534302%)" offset="0.574219"/><stop stop-opacity="1" stop-color="rgb(95.848083%, 64.328003%, 19.40918%)" offset="0.578125"/><stop stop-opacity="1" stop-color="rgb(95.866394%, 64.608765%, 19.282532%)" offset="0.582031"/><stop stop-opacity="1" stop-color="rgb(95.884705%, 64.889526%, 19.15741%)" offset="0.585938"/><stop stop-opacity="1" stop-color="rgb(95.903015%, 65.170288%, 19.030762%)" offset="0.589844"/><stop stop-opacity="1" stop-color="rgb(95.921326%, 65.45105%, 18.90564%)" offset="0.59375"/><stop stop-opacity="1" stop-color="rgb(95.939636%, 65.731812%, 18.778992%)" offset="0.597656"/><stop stop-opacity="1" stop-color="rgb(95.957947%, 66.012573%, 18.65387%)" offset="0.601562"/><stop stop-opacity="1" stop-color="rgb(95.976257%, 66.293335%, 18.527222%)" offset="0.605469"/><stop stop-opacity="1" stop-color="rgb(95.994568%, 66.574097%, 18.400574%)" offset="0.609375"/><stop stop-opacity="1" stop-color="rgb(96.012878%, 66.854858%, 18.273926%)" offset="0.613281"/><stop stop-opacity="1" stop-color="rgb(96.031189%, 67.13562%, 18.148804%)" offset="0.617188"/><stop stop-opacity="1" stop-color="rgb(96.0495%, 67.416382%, 18.022156%)" offset="0.621094"/><stop stop-opacity="1" stop-color="rgb(96.06781%, 67.697144%, 17.897034%)" offset="0.625"/><stop stop-opacity="1" stop-color="rgb(96.086121%, 67.977905%, 17.770386%)" offset="0.628906"/><stop stop-opacity="1" stop-color="rgb(96.104431%, 68.258667%, 17.645264%)" offset="0.632812"/><stop stop-opacity="1" stop-color="rgb(96.122742%, 68.539429%, 17.518616%)" offset="0.636719"/><stop stop-opacity="1" stop-color="rgb(96.141052%, 68.82019%, 17.393494%)" offset="0.640625"/><stop stop-opacity="1" stop-color="rgb(96.159363%, 69.100952%, 17.266846%)" offset="0.644531"/><stop stop-opacity="1" stop-color="rgb(96.179199%, 69.381714%, 17.141724%)" offset="0.648438"/><stop stop-opacity="1" stop-color="rgb(96.19751%, 69.662476%, 17.015076%)" offset="0.652344"/><stop stop-opacity="1" stop-color="rgb(96.21582%, 69.944763%, 16.889954%)" offset="0.65625"/><stop stop-opacity="1" stop-color="rgb(96.234131%, 70.225525%, 16.763306%)" offset="0.660156"/><stop stop-opacity="1" stop-color="rgb(96.252441%, 70.506287%, 16.638184%)" offset="0.664062"/><stop stop-opacity="1" stop-color="rgb(96.270752%, 70.787048%, 16.511536%)" offset="0.667969"/><stop stop-opacity="1" stop-color="rgb(96.289062%, 71.06781%, 16.384888%)" offset="0.671875"/><stop stop-opacity="1" stop-color="rgb(96.307373%, 71.348572%, 16.25824%)" offset="0.675781"/><stop stop-opacity="1" stop-color="rgb(96.325684%, 71.629333%, 16.133118%)" offset="0.679688"/><stop stop-opacity="1" stop-color="rgb(96.343994%, 71.910095%, 16.00647%)" offset="0.683594"/><stop stop-opacity="1" stop-color="rgb(96.362305%, 72.190857%, 15.881348%)" offset="0.6875"/><stop stop-opacity="1" stop-color="rgb(96.380615%, 72.471619%, 15.7547%)" offset="0.691406"/><stop stop-opacity="1" stop-color="rgb(96.398926%, 72.75238%, 15.629578%)" offset="0.695312"/><stop stop-opacity="1" stop-color="rgb(96.417236%, 73.033142%, 15.50293%)" offset="0.699219"/><stop stop-opacity="1" stop-color="rgb(96.435547%, 73.313904%, 15.377808%)" offset="0.703125"/><stop stop-opacity="1" stop-color="rgb(96.453857%, 73.594666%, 15.25116%)" offset="0.707031"/><stop stop-opacity="1" stop-color="rgb(96.472168%, 73.875427%, 15.126038%)" offset="0.710938"/><stop stop-opacity="1" stop-color="rgb(96.490479%, 74.156189%, 14.99939%)" offset="0.714844"/><stop stop-opacity="1" stop-color="rgb(96.508789%, 74.436951%, 14.874268%)" offset="0.71875"/><stop stop-opacity="1" stop-color="rgb(96.5271%, 74.717712%, 14.74762%)" offset="0.722656"/><stop stop-opacity="1" stop-color="rgb(96.54541%, 74.998474%, 14.622498%)" offset="0.726563"/><stop stop-opacity="1" stop-color="rgb(96.563721%, 75.279236%, 14.49585%)" offset="0.730469"/><stop stop-opacity="1" stop-color="rgb(96.582031%, 75.559998%, 14.369202%)" offset="0.734375"/><stop stop-opacity="1" stop-color="rgb(96.600342%, 75.840759%, 14.242554%)" offset="0.738281"/><stop stop-opacity="1" stop-color="rgb(96.620178%, 76.123047%, 14.117432%)" offset="0.742187"/><stop stop-opacity="1" stop-color="rgb(96.638489%, 76.403809%, 13.990784%)" offset="0.746094"/><stop stop-opacity="1" stop-color="rgb(96.656799%, 76.68457%, 13.865662%)" offset="0.75"/><stop stop-opacity="1" stop-color="rgb(96.67511%, 76.965332%, 13.739014%)" offset="0.753906"/><stop stop-opacity="1" stop-color="rgb(96.69342%, 77.246094%, 13.613892%)" offset="0.757812"/><stop stop-opacity="1" stop-color="rgb(96.711731%, 77.526855%, 13.487244%)" offset="0.761719"/><stop stop-opacity="1" stop-color="rgb(96.730042%, 77.807617%, 13.362122%)" offset="0.765625"/><stop stop-opacity="1" stop-color="rgb(96.748352%, 78.088379%, 13.235474%)" offset="0.769531"/><stop stop-opacity="1" stop-color="rgb(96.766663%, 78.369141%, 13.110352%)" offset="0.773438"/><stop stop-opacity="1" stop-color="rgb(96.784973%, 78.649902%, 12.983704%)" offset="0.777344"/><stop stop-opacity="1" stop-color="rgb(96.803284%, 78.930664%, 12.858582%)" offset="0.78125"/><stop stop-opacity="1" stop-color="rgb(96.821594%, 79.211426%, 12.731934%)" offset="0.785156"/><stop stop-opacity="1" stop-color="rgb(96.839905%, 79.492188%, 12.605286%)" offset="0.789062"/><stop stop-opacity="1" stop-color="rgb(96.858215%, 79.772949%, 12.478638%)" offset="0.792969"/><stop stop-opacity="1" stop-color="rgb(96.876526%, 80.053711%, 12.353516%)" offset="0.796875"/><stop stop-opacity="1" stop-color="rgb(96.887207%, 80.226135%, 12.275696%)" offset="0.8125"/><stop stop-opacity="1" stop-color="rgb(96.899414%, 80.39856%, 12.199402%)" offset="0.875"/><stop stop-opacity="1" stop-color="rgb(96.899414%, 80.39856%, 12.199402%)" offset="1"/></linearGradient><clipPath id="3e57ee048d"><path d="M 140 216 L 258 216 L 258 258.136719 L 140 258.136719 Z M 140 216 " clip-rule="nonzero"/></clipPath></defs><g clip-path="url(#2683374ba4)"><g clip-path="url(#0fc31405c9)"><path fill="url(#4aff077394)" d="M 59.023438 240.152344 L 59.023438 54.191406 L 266.582031 54.191406 L 266.582031 240.152344 Z M 59.023438 240.152344 " fill-rule="nonzero"/></g></g><g clip-path="url(#3e57ee048d)"><path fill="#000f52" d="M 140.054688 232.640625 C 144.621094 237.289062 150.015625 240.859375 155.914062 243.140625 L 150.640625 243.140625 C 146.820312 240.070312 143.25 236.582031 140.054688 232.640625 Z M 225.734375 216.574219 L 211.539062 230.769531 L 206.597656 230.769531 C 210.167969 226.660156 213.03125 221.886719 214.941406 216.65625 Z M 244.332031 216.449219 L 230.011719 230.769531 L 214.652344 230.769531 L 228.847656 216.53125 Z M 249.398438 230.769531 L 233.125 230.769531 L 247.488281 216.40625 L 257.824219 216.324219 C 255.539062 221.515625 252.71875 226.371094 249.398438 230.769531 Z M 218.511719 245.382812 L 234.410156 245.382812 C 226.273438 251.238281 216.851562 255.304688 206.722656 257.171875 Z M 220.710938 243.183594 L 230.925781 232.972656 L 247.695312 232.972656 C 244.582031 236.75 241.136719 240.152344 237.359375 243.183594 Z M 202.238281 243.183594 L 212.453125 232.972656 L 227.8125 232.972656 L 217.597656 243.183594 Z M 199.125 243.183594 L 188.957031 243.183594 C 194.808594 240.898438 200.121094 237.371094 204.523438 232.972656 L 209.339844 232.972656 Z M 187.378906 258.042969 L 200.039062 245.382812 L 215.398438 245.382812 L 203.027344 257.753906 C 197.757812 258.417969 192.527344 258.5 187.378906 258.042969 Z M 168.035156 253.3125 L 175.132812 246.214844 C 177.25 246.089844 179.40625 245.796875 181.523438 245.382812 L 196.925781 245.382812 L 184.597656 257.710938 C 178.910156 256.921875 173.347656 255.429688 168.035156 253.3125 Z M 153.585938 245.382812 L 163.382812 245.382812 C 166.207031 245.964844 169.03125 246.253906 171.9375 246.296875 L 165.832031 252.398438 C 161.558594 250.449219 157.449219 248.121094 153.585938 245.382812 Z M 153.585938 245.382812 " fill-opacity="1" fill-rule="nonzero"/></g><g fill="#000f52" fill-opacity="1"><g transform="translate(117.393947, 307.114877)"><g><path d="M 11.992188 0.597656 C 18.480469 0.597656 22.691406 -2.257812 22.691406 -7.359375 C 22.691406 -12.609375 18.210938 -14.523438 13.382812 -15.410156 C 8.980469 -16.125 6.796875 -17.128906 6.796875 -19.332031 C 6.796875 -20.992188 7.78125 -22.671875 11.761719 -22.671875 C 15.335938 -22.671875 16.898438 -21.03125 16.898438 -19.003906 L 21.707031 -19.003906 C 21.707031 -23.714844 18.367188 -26.882812 11.820312 -26.882812 C 5.003906 -26.882812 1.988281 -23.621094 1.988281 -19.351562 C 1.988281 -13.90625 7.378906 -12.320312 11.78125 -11.414062 C 15.429688 -10.71875 17.824219 -9.8125 17.824219 -7.378906 C 17.824219 -4.769531 15.914062 -3.457031 11.972656 -3.457031 C 8.265625 -3.457031 6.121094 -5.425781 6.121094 -7.878906 L 1.3125 -7.878906 C 1.3125 -3.765625 4.402344 0.597656 11.992188 0.597656 Z M 11.992188 0.597656 "/></g></g></g><g fill="#000f52" fill-opacity="1"><g transform="translate(141.299297, 307.114877)"><g><path d="M 15.429688 0.558594 C 23.253906 0.558594 29.605469 -5.542969 29.605469 -13.171875 C 29.605469 -20.800781 23.253906 -26.882812 15.429688 -26.882812 C 7.609375 -26.882812 1.273438 -20.800781 1.273438 -13.171875 C 1.273438 -5.542969 7.609375 0.558594 15.429688 0.558594 Z M 15.429688 -3.863281 C 10.273438 -3.863281 6.082031 -7.820312 6.082031 -13.152344 C 6.082031 -18.5 10.253906 -22.480469 15.429688 -22.480469 C 20.625 -22.480469 24.816406 -18.519531 24.816406 -13.152344 C 24.816406 -7.820312 20.625 -3.863281 15.429688 -3.863281 Z M 15.429688 -3.863281 "/></g></g></g><g fill="#000f52" fill-opacity="1"><g transform="translate(172.175432, 307.114877)"><g><path d="M 19.796875 0 L 19.796875 -4.308594 L 7.9375 -4.308594 L 7.9375 -26.265625 L 3.128906 -26.265625 L 3.128906 0 Z M 19.796875 0 "/></g></g></g><g fill="#000f52" fill-opacity="1"><g transform="translate(192.740212, 307.114877)"><g><path d="M 15.140625 0.558594 C 23.734375 0.558594 28.679688 -5.523438 28.621094 -14.136719 L 14.910156 -14.136719 L 14.910156 -10.121094 L 23.40625 -10.121094 C 22.671875 -6.449219 19.796875 -3.863281 15.101562 -3.863281 C 10.140625 -3.863281 6.082031 -7.453125 6.082031 -13.152344 C 6.082031 -18.753906 10.140625 -22.480469 15.101562 -22.480469 C 18.828125 -22.480469 21.765625 -20.664062 23.136719 -17.59375 L 28.023438 -17.59375 C 26.785156 -23.503906 20.78125 -26.882812 15.21875 -26.882812 C 7.492188 -26.882812 1.292969 -20.800781 1.292969 -13.152344 C 1.292969 -5.5625 7.492188 0.558594 15.140625 0.558594 Z M 15.140625 0.558594 "/></g></g></g><g fill="#000f52" fill-opacity="1"><g transform="translate(222.650865, 307.114877)"><g><path d="M 7.9375 0 L 7.9375 -26.265625 L 3.128906 -26.265625 L 3.128906 0 Z M 7.9375 0 "/></g></g></g><g fill="#000f52" fill-opacity="1"><g transform="translate(233.695987, 307.114877)"><g><path d="M 11.992188 0.597656 C 18.480469 0.597656 22.691406 -2.257812 22.691406 -7.359375 C 22.691406 -12.609375 18.210938 -14.523438 13.382812 -15.410156 C 8.980469 -16.125 6.796875 -17.128906 6.796875 -19.332031 C 6.796875 -20.992188 7.78125 -22.671875 11.761719 -22.671875 C 15.335938 -22.671875 16.898438 -21.03125 16.898438 -19.003906 L 21.707031 -19.003906 C 21.707031 -23.714844 18.367188 -26.882812 11.820312 -26.882812 C 5.003906 -26.882812 1.988281 -23.621094 1.988281 -19.351562 C 1.988281 -13.90625 7.378906 -12.320312 11.78125 -11.414062 C 15.429688 -10.71875 17.824219 -9.8125 17.824219 -7.378906 C 17.824219 -4.769531 15.914062 -3.457031 11.972656 -3.457031 C 8.265625 -3.457031 6.121094 -5.425781 6.121094 -7.878906 L 1.3125 -7.878906 C 1.3125 -3.765625 4.402344 0.597656 11.992188 0.597656 Z M 11.992188 0.597656 "/></g></g></g></svg>