<svg xmlns="http://www.w3.org/2000/svg" xmlns:xlink="http://www.w3.org/1999/xlink" width="500" zoomAndPan="magnify" viewBox="0 0 375 374.999991" height="500" preserveAspectRatio="xMidYMid meet" version="1.0"><defs><g/><clipPath id="a6d77d568f"><path d="M 0 96.414062 L 165 96.414062 L 165 243 L 0 243 Z M 0 96.414062 " clip-rule="nonzero"/></clipPath><clipPath id="c4abdd47e5"><path d="M 87.667969 242.460938 C 69.117188 235.097656 56.015625 217.011719 56.015625 195.820312 C 56.015625 168.128906 78.460938 145.683594 106.152344 145.683594 C 122.820312 145.683594 137.574219 153.804688 146.71875 166.3125 L 157.148438 166.3125 C 152.328125 157.996094 145.496094 150.964844 137.34375 145.847656 C 137.410156 145.847656 137.441406 145.847656 137.476562 145.882812 L 140.25 136.507812 L 144.636719 121.722656 L 137.773438 135.519531 L 133.714844 143.703125 C 133.746094 143.703125 133.777344 143.769531 133.777344 143.800781 C 126.1875 139.777344 117.640625 137.367188 108.5625 137.003906 L 107.539062 119.210938 L 106.21875 96.371094 L 104.898438 119.210938 L 103.875 137.003906 C 94.863281 137.367188 86.414062 139.742188 78.890625 143.703125 L 72.15625 136.605469 L 61.558594 125.417969 L 70.078125 138.257812 L 75.125 145.847656 C 67.632812 150.535156 61.261719 156.839844 56.511719 164.332031 L 47.234375 161.59375 L 32.382812 157.171875 L 46.179688 164.035156 L 54.234375 168.0625 C 49.976562 176.015625 47.5 185.0625 47.300781 194.667969 L 27.199219 195.886719 L 0.0351562 197.539062 L 27.300781 198.5625 L 47.402344 199.320312 C 47.894531 207.933594 50.238281 216.054688 54.066406 223.28125 L 47.234375 229.753906 L 36.046875 240.347656 L 48.886719 231.832031 L 56.214844 226.980469 C 58.953125 231.335938 75.257812 244.273438 87.667969 242.460938 Z M 156.355469 195.820312 C 156.355469 203.246094 154.738281 210.277344 151.867188 216.582031 L 161.308594 216.582031 C 163.75 210.113281 165.070312 203.117188 165.070312 195.820312 C 165.070312 188.492188 163.75 181.496094 161.308594 175.058594 L 151.867188 175.058594 C 154.738281 181.398438 156.355469 188.429688 156.355469 195.820312 Z M 156.355469 195.820312 " clip-rule="nonzero"/></clipPath><linearGradient x1="24781.27724" gradientTransform="matrix(0.0107602, 0, 0, -0.0107602, -209.06347, -156.853696)" y1="-39349.269283" x2="31404.826593" gradientUnits="userSpaceOnUse" y2="-22237.512081" id="b8ad5650bb"><stop stop-opacity="1" stop-color="rgb(94.099426%, 37.599182%, 31.399536%)" offset="0"/><stop stop-opacity="1" stop-color="rgb(94.099426%, 37.599182%, 31.399536%)" offset="0.125"/><stop stop-opacity="1" stop-color="rgb(94.099426%, 37.599182%, 31.399536%)" offset="0.1875"/><stop stop-opacity="1" stop-color="rgb(94.099426%, 37.599182%, 31.399536%)" offset="0.203125"/><stop stop-opacity="1" stop-color="rgb(94.110107%, 37.762451%, 31.324768%)" offset="0.210937"/><stop stop-opacity="1" stop-color="rgb(94.139099%, 38.208008%, 31.124878%)" offset="0.214844"/><stop stop-opacity="1" stop-color="rgb(94.15741%, 38.48877%, 30.999756%)" offset="0.21875"/><stop stop-opacity="1" stop-color="rgb(94.17572%, 38.769531%, 30.873108%)" offset="0.222656"/><stop stop-opacity="1" stop-color="rgb(94.194031%, 39.050293%, 30.747986%)" offset="0.226562"/><stop stop-opacity="1" stop-color="rgb(94.212341%, 39.331055%, 30.621338%)" offset="0.230469"/><stop stop-opacity="1" stop-color="rgb(94.230652%, 39.611816%, 30.496216%)" offset="0.234375"/><stop stop-opacity="1" stop-color="rgb(94.248962%, 39.892578%, 30.369568%)" offset="0.238281"/><stop stop-opacity="1" stop-color="rgb(94.267273%, 40.17334%, 30.244446%)" offset="0.242187"/><stop stop-opacity="1" stop-color="rgb(94.285583%, 40.454102%, 30.117798%)" offset="0.246094"/><stop stop-opacity="1" stop-color="rgb(94.303894%, 40.734863%, 29.992676%)" offset="0.25"/><stop stop-opacity="1" stop-color="rgb(94.322205%, 41.015625%, 29.866028%)" offset="0.253906"/><stop stop-opacity="1" stop-color="rgb(94.340515%, 41.296387%, 29.740906%)" offset="0.257812"/><stop stop-opacity="1" stop-color="rgb(94.358826%, 41.577148%, 29.614258%)" offset="0.261719"/><stop stop-opacity="1" stop-color="rgb(94.377136%, 41.85791%, 29.489136%)" offset="0.265625"/><stop stop-opacity="1" stop-color="rgb(94.395447%, 42.138672%, 29.362488%)" offset="0.269531"/><stop stop-opacity="1" stop-color="rgb(94.415283%, 42.419434%, 29.237366%)" offset="0.273438"/><stop stop-opacity="1" stop-color="rgb(94.433594%, 42.700195%, 29.110718%)" offset="0.277344"/><stop stop-opacity="1" stop-color="rgb(94.451904%, 42.980957%, 28.985596%)" offset="0.28125"/><stop stop-opacity="1" stop-color="rgb(94.470215%, 43.261719%, 28.858948%)" offset="0.285156"/><stop stop-opacity="1" stop-color="rgb(94.488525%, 43.54248%, 28.7323%)" offset="0.289062"/><stop stop-opacity="1" stop-color="rgb(94.506836%, 43.823242%, 28.605652%)" offset="0.292969"/><stop stop-opacity="1" stop-color="rgb(94.525146%, 44.104004%, 28.48053%)" offset="0.296875"/><stop stop-opacity="1" stop-color="rgb(94.543457%, 44.384766%, 28.353882%)" offset="0.300781"/><stop stop-opacity="1" stop-color="rgb(94.561768%, 44.665527%, 28.22876%)" offset="0.304688"/><stop stop-opacity="1" stop-color="rgb(94.580078%, 44.946289%, 28.102112%)" offset="0.308594"/><stop stop-opacity="1" stop-color="rgb(94.598389%, 45.227051%, 27.97699%)" offset="0.3125"/><stop stop-opacity="1" stop-color="rgb(94.616699%, 45.507812%, 27.850342%)" offset="0.316406"/><stop stop-opacity="1" stop-color="rgb(94.63501%, 45.788574%, 27.72522%)" offset="0.320312"/><stop stop-opacity="1" stop-color="rgb(94.65332%, 46.069336%, 27.598572%)" offset="0.324219"/><stop stop-opacity="1" stop-color="rgb(94.671631%, 46.350098%, 27.47345%)" offset="0.328125"/><stop stop-opacity="1" stop-color="rgb(94.689941%, 46.630859%, 27.346802%)" offset="0.332031"/><stop stop-opacity="1" stop-color="rgb(94.708252%, 46.913147%, 27.22168%)" offset="0.335937"/><stop stop-opacity="1" stop-color="rgb(94.726562%, 47.193909%, 27.095032%)" offset="0.339844"/><stop stop-opacity="1" stop-color="rgb(94.744873%, 47.47467%, 26.96991%)" offset="0.34375"/><stop stop-opacity="1" stop-color="rgb(94.763184%, 47.755432%, 26.843262%)" offset="0.347656"/><stop stop-opacity="1" stop-color="rgb(94.781494%, 48.036194%, 26.71814%)" offset="0.351562"/><stop stop-opacity="1" stop-color="rgb(94.799805%, 48.316956%, 26.591492%)" offset="0.355469"/><stop stop-opacity="1" stop-color="rgb(94.818115%, 48.597717%, 26.464844%)" offset="0.359375"/><stop stop-opacity="1" stop-color="rgb(94.836426%, 48.878479%, 26.338196%)" offset="0.363281"/><stop stop-opacity="1" stop-color="rgb(94.854736%, 49.159241%, 26.213074%)" offset="0.367188"/><stop stop-opacity="1" stop-color="rgb(94.873047%, 49.440002%, 26.086426%)" offset="0.371094"/><stop stop-opacity="1" stop-color="rgb(94.892883%, 49.720764%, 25.961304%)" offset="0.375"/><stop stop-opacity="1" stop-color="rgb(94.911194%, 50.001526%, 25.834656%)" offset="0.378906"/><stop stop-opacity="1" stop-color="rgb(94.929504%, 50.282288%, 25.709534%)" offset="0.382812"/><stop stop-opacity="1" stop-color="rgb(94.947815%, 50.563049%, 25.582886%)" offset="0.386719"/><stop stop-opacity="1" stop-color="rgb(94.966125%, 50.843811%, 25.457764%)" offset="0.390625"/><stop stop-opacity="1" stop-color="rgb(94.984436%, 51.124573%, 25.331116%)" offset="0.394531"/><stop stop-opacity="1" stop-color="rgb(95.002747%, 51.405334%, 25.205994%)" offset="0.398437"/><stop stop-opacity="1" stop-color="rgb(95.021057%, 51.686096%, 25.079346%)" offset="0.402344"/><stop stop-opacity="1" stop-color="rgb(95.039368%, 51.966858%, 24.954224%)" offset="0.40625"/><stop stop-opacity="1" stop-color="rgb(95.057678%, 52.24762%, 24.827576%)" offset="0.410156"/><stop stop-opacity="1" stop-color="rgb(95.075989%, 52.528381%, 24.702454%)" offset="0.414062"/><stop stop-opacity="1" stop-color="rgb(95.094299%, 52.809143%, 24.575806%)" offset="0.417969"/><stop stop-opacity="1" stop-color="rgb(95.11261%, 53.089905%, 24.450684%)" offset="0.421875"/><stop stop-opacity="1" stop-color="rgb(95.13092%, 53.370667%, 24.324036%)" offset="0.425781"/><stop stop-opacity="1" stop-color="rgb(95.149231%, 53.651428%, 24.198914%)" offset="0.429687"/><stop stop-opacity="1" stop-color="rgb(95.167542%, 53.93219%, 24.072266%)" offset="0.433594"/><stop stop-opacity="1" stop-color="rgb(95.185852%, 54.212952%, 23.945618%)" offset="0.4375"/><stop stop-opacity="1" stop-color="rgb(95.204163%, 54.493713%, 23.81897%)" offset="0.441406"/><stop stop-opacity="1" stop-color="rgb(95.222473%, 54.774475%, 23.693848%)" offset="0.445312"/><stop stop-opacity="1" stop-color="rgb(95.240784%, 55.055237%, 23.5672%)" offset="0.449219"/><stop stop-opacity="1" stop-color="rgb(95.259094%, 55.335999%, 23.442078%)" offset="0.453125"/><stop stop-opacity="1" stop-color="rgb(95.277405%, 55.61676%, 23.31543%)" offset="0.457031"/><stop stop-opacity="1" stop-color="rgb(95.295715%, 55.897522%, 23.190308%)" offset="0.460938"/><stop stop-opacity="1" stop-color="rgb(95.314026%, 56.178284%, 23.06366%)" offset="0.464844"/><stop stop-opacity="1" stop-color="rgb(95.332336%, 56.459045%, 22.938538%)" offset="0.46875"/><stop stop-opacity="1" stop-color="rgb(95.350647%, 56.739807%, 22.81189%)" offset="0.472656"/><stop stop-opacity="1" stop-color="rgb(95.370483%, 57.020569%, 22.686768%)" offset="0.476562"/><stop stop-opacity="1" stop-color="rgb(95.388794%, 57.301331%, 22.56012%)" offset="0.480469"/><stop stop-opacity="1" stop-color="rgb(95.407104%, 57.582092%, 22.434998%)" offset="0.484375"/><stop stop-opacity="1" stop-color="rgb(95.425415%, 57.862854%, 22.30835%)" offset="0.488281"/><stop stop-opacity="1" stop-color="rgb(95.443726%, 58.145142%, 22.183228%)" offset="0.492187"/><stop stop-opacity="1" stop-color="rgb(95.462036%, 58.425903%, 22.05658%)" offset="0.496094"/><stop stop-opacity="1" stop-color="rgb(95.480347%, 58.706665%, 21.931458%)" offset="0.5"/><stop stop-opacity="1" stop-color="rgb(95.498657%, 58.987427%, 21.80481%)" offset="0.503906"/><stop stop-opacity="1" stop-color="rgb(95.516968%, 59.268188%, 21.678162%)" offset="0.507812"/><stop stop-opacity="1" stop-color="rgb(95.535278%, 59.54895%, 21.551514%)" offset="0.511719"/><stop stop-opacity="1" stop-color="rgb(95.553589%, 59.829712%, 21.426392%)" offset="0.515625"/><stop stop-opacity="1" stop-color="rgb(95.571899%, 60.110474%, 21.299744%)" offset="0.519531"/><stop stop-opacity="1" stop-color="rgb(95.59021%, 60.391235%, 21.174622%)" offset="0.523438"/><stop stop-opacity="1" stop-color="rgb(95.608521%, 60.671997%, 21.047974%)" offset="0.527344"/><stop stop-opacity="1" stop-color="rgb(95.626831%, 60.952759%, 20.922852%)" offset="0.53125"/><stop stop-opacity="1" stop-color="rgb(95.645142%, 61.233521%, 20.796204%)" offset="0.535156"/><stop stop-opacity="1" stop-color="rgb(95.663452%, 61.514282%, 20.671082%)" offset="0.539062"/><stop stop-opacity="1" stop-color="rgb(95.681763%, 61.795044%, 20.544434%)" offset="0.542969"/><stop stop-opacity="1" stop-color="rgb(95.700073%, 62.075806%, 20.419312%)" offset="0.546875"/><stop stop-opacity="1" stop-color="rgb(95.718384%, 62.356567%, 20.292664%)" offset="0.550781"/><stop stop-opacity="1" stop-color="rgb(95.736694%, 62.637329%, 20.167542%)" offset="0.554687"/><stop stop-opacity="1" stop-color="rgb(95.755005%, 62.918091%, 20.040894%)" offset="0.558594"/><stop stop-opacity="1" stop-color="rgb(95.773315%, 63.198853%, 19.915771%)" offset="0.5625"/><stop stop-opacity="1" stop-color="rgb(95.791626%, 63.479614%, 19.789124%)" offset="0.566406"/><stop stop-opacity="1" stop-color="rgb(95.811462%, 63.760376%, 19.664001%)" offset="0.570312"/><stop stop-opacity="1" stop-color="rgb(95.829773%, 64.041138%, 19.537354%)" offset="0.574219"/><stop stop-opacity="1" stop-color="rgb(95.848083%, 64.321899%, 19.410706%)" offset="0.578125"/><stop stop-opacity="1" stop-color="rgb(95.866394%, 64.602661%, 19.284058%)" offset="0.582031"/><stop stop-opacity="1" stop-color="rgb(95.884705%, 64.883423%, 19.158936%)" offset="0.585938"/><stop stop-opacity="1" stop-color="rgb(95.903015%, 65.164185%, 19.032288%)" offset="0.589844"/><stop stop-opacity="1" stop-color="rgb(95.921326%, 65.444946%, 18.907166%)" offset="0.59375"/><stop stop-opacity="1" stop-color="rgb(95.939636%, 65.725708%, 18.780518%)" offset="0.597656"/><stop stop-opacity="1" stop-color="rgb(95.957947%, 66.00647%, 18.655396%)" offset="0.601562"/><stop stop-opacity="1" stop-color="rgb(95.976257%, 66.287231%, 18.528748%)" offset="0.605469"/><stop stop-opacity="1" stop-color="rgb(95.994568%, 66.567993%, 18.403625%)" offset="0.609375"/><stop stop-opacity="1" stop-color="rgb(96.012878%, 66.848755%, 18.276978%)" offset="0.613281"/><stop stop-opacity="1" stop-color="rgb(96.031189%, 67.129517%, 18.151855%)" offset="0.617188"/><stop stop-opacity="1" stop-color="rgb(96.0495%, 67.410278%, 18.025208%)" offset="0.621094"/><stop stop-opacity="1" stop-color="rgb(96.06781%, 67.69104%, 17.900085%)" offset="0.625"/><stop stop-opacity="1" stop-color="rgb(96.086121%, 67.971802%, 17.773438%)" offset="0.628906"/><stop stop-opacity="1" stop-color="rgb(96.104431%, 68.252563%, 17.648315%)" offset="0.632812"/><stop stop-opacity="1" stop-color="rgb(96.122742%, 68.533325%, 17.521667%)" offset="0.636719"/><stop stop-opacity="1" stop-color="rgb(96.141052%, 68.814087%, 17.396545%)" offset="0.640625"/><stop stop-opacity="1" stop-color="rgb(96.159363%, 69.094849%, 17.269897%)" offset="0.644531"/><stop stop-opacity="1" stop-color="rgb(96.177673%, 69.377136%, 17.144775%)" offset="0.648438"/><stop stop-opacity="1" stop-color="rgb(96.195984%, 69.657898%, 17.018127%)" offset="0.652344"/><stop stop-opacity="1" stop-color="rgb(96.214294%, 69.93866%, 16.891479%)" offset="0.65625"/><stop stop-opacity="1" stop-color="rgb(96.232605%, 70.219421%, 16.764832%)" offset="0.660156"/><stop stop-opacity="1" stop-color="rgb(96.250916%, 70.500183%, 16.639709%)" offset="0.664063"/><stop stop-opacity="1" stop-color="rgb(96.269226%, 70.780945%, 16.513062%)" offset="0.667969"/><stop stop-opacity="1" stop-color="rgb(96.289062%, 71.061707%, 16.387939%)" offset="0.671875"/><stop stop-opacity="1" stop-color="rgb(96.307373%, 71.342468%, 16.261292%)" offset="0.675781"/><stop stop-opacity="1" stop-color="rgb(96.325684%, 71.62323%, 16.136169%)" offset="0.679688"/><stop stop-opacity="1" stop-color="rgb(96.343994%, 71.903992%, 16.009521%)" offset="0.683594"/><stop stop-opacity="1" stop-color="rgb(96.362305%, 72.184753%, 15.884399%)" offset="0.6875"/><stop stop-opacity="1" stop-color="rgb(96.380615%, 72.465515%, 15.757751%)" offset="0.691406"/><stop stop-opacity="1" stop-color="rgb(96.398926%, 72.746277%, 15.632629%)" offset="0.695312"/><stop stop-opacity="1" stop-color="rgb(96.417236%, 73.027039%, 15.505981%)" offset="0.699219"/><stop stop-opacity="1" stop-color="rgb(96.435547%, 73.3078%, 15.380859%)" offset="0.703125"/><stop stop-opacity="1" stop-color="rgb(96.453857%, 73.588562%, 15.254211%)" offset="0.707031"/><stop stop-opacity="1" stop-color="rgb(96.472168%, 73.869324%, 15.129089%)" offset="0.710938"/><stop stop-opacity="1" stop-color="rgb(96.490479%, 74.150085%, 15.002441%)" offset="0.714844"/><stop stop-opacity="1" stop-color="rgb(96.508789%, 74.430847%, 14.877319%)" offset="0.71875"/><stop stop-opacity="1" stop-color="rgb(96.5271%, 74.711609%, 14.750671%)" offset="0.722656"/><stop stop-opacity="1" stop-color="rgb(96.54541%, 74.992371%, 14.624023%)" offset="0.726562"/><stop stop-opacity="1" stop-color="rgb(96.563721%, 75.273132%, 14.497375%)" offset="0.730469"/><stop stop-opacity="1" stop-color="rgb(96.582031%, 75.553894%, 14.372253%)" offset="0.734375"/><stop stop-opacity="1" stop-color="rgb(96.600342%, 75.834656%, 14.245605%)" offset="0.738281"/><stop stop-opacity="1" stop-color="rgb(96.618652%, 76.115417%, 14.120483%)" offset="0.742188"/><stop stop-opacity="1" stop-color="rgb(96.636963%, 76.396179%, 13.993835%)" offset="0.746094"/><stop stop-opacity="1" stop-color="rgb(96.655273%, 76.676941%, 13.868713%)" offset="0.75"/><stop stop-opacity="1" stop-color="rgb(96.673584%, 76.957703%, 13.742065%)" offset="0.753906"/><stop stop-opacity="1" stop-color="rgb(96.691895%, 77.238464%, 13.616943%)" offset="0.757812"/><stop stop-opacity="1" stop-color="rgb(96.710205%, 77.519226%, 13.490295%)" offset="0.761719"/><stop stop-opacity="1" stop-color="rgb(96.728516%, 77.799988%, 13.365173%)" offset="0.765625"/><stop stop-opacity="1" stop-color="rgb(96.746826%, 78.08075%, 13.238525%)" offset="0.769531"/><stop stop-opacity="1" stop-color="rgb(96.766663%, 78.361511%, 13.113403%)" offset="0.773437"/><stop stop-opacity="1" stop-color="rgb(96.784973%, 78.642273%, 12.986755%)" offset="0.777344"/><stop stop-opacity="1" stop-color="rgb(96.803284%, 78.923035%, 12.861633%)" offset="0.78125"/><stop stop-opacity="1" stop-color="rgb(96.821594%, 79.203796%, 12.734985%)" offset="0.785156"/><stop stop-opacity="1" stop-color="rgb(96.839905%, 79.484558%, 12.609863%)" offset="0.789062"/><stop stop-opacity="1" stop-color="rgb(96.858215%, 79.76532%, 12.483215%)" offset="0.792969"/><stop stop-opacity="1" stop-color="rgb(96.876526%, 80.046082%, 12.358093%)" offset="0.796875"/><stop stop-opacity="1" stop-color="rgb(96.887207%, 80.221558%, 12.278748%)" offset="0.8125"/><stop stop-opacity="1" stop-color="rgb(96.899414%, 80.39856%, 12.199402%)" offset="0.875"/><stop stop-opacity="1" stop-color="rgb(96.899414%, 80.39856%, 12.199402%)" offset="1"/></linearGradient></defs><g clip-path="url(#a6d77d568f)"><g clip-path="url(#c4abdd47e5)"><path fill="url(#b8ad5650bb)" d="M 0.0351562 244.273438 L 0.0351562 96.414062 L 165 96.414062 L 165 244.273438 Z M 0.0351562 244.273438 " fill-rule="nonzero"/></g></g><path fill="#000f52" d="M 64.464844 238.300781 C 68.097656 241.996094 72.386719 244.835938 77.074219 246.652344 L 72.882812 246.652344 C 69.84375 244.210938 67.007812 241.4375 64.464844 238.300781 Z M 132.589844 225.527344 L 121.300781 236.816406 L 117.375 236.816406 C 120.214844 233.546875 122.492188 229.753906 124.007812 225.59375 Z M 147.378906 225.429688 L 135.992188 236.816406 L 123.777344 236.816406 L 135.066406 225.496094 Z M 151.40625 236.816406 L 138.464844 236.816406 L 149.886719 225.394531 L 158.105469 225.328125 C 156.289062 229.457031 154.046875 233.316406 151.40625 236.816406 Z M 126.847656 248.433594 L 139.488281 248.433594 C 133.019531 253.089844 125.527344 256.324219 117.472656 257.808594 Z M 128.597656 246.683594 L 136.714844 238.566406 L 150.050781 238.566406 C 147.574219 241.570312 144.835938 244.273438 141.832031 246.683594 Z M 113.910156 246.683594 L 122.027344 238.566406 L 134.242188 238.566406 L 126.121094 246.683594 Z M 111.433594 246.683594 L 103.347656 246.683594 C 108 244.871094 112.226562 242.0625 115.722656 238.566406 L 119.554688 238.566406 Z M 102.09375 258.5 L 112.160156 248.433594 L 124.371094 248.433594 L 114.535156 258.269531 C 110.34375 258.796875 106.1875 258.863281 102.09375 258.5 Z M 86.710938 254.738281 L 92.355469 249.09375 C 94.039062 248.996094 95.753906 248.765625 97.4375 248.433594 L 109.683594 248.433594 L 99.882812 258.238281 C 95.359375 257.609375 90.9375 256.421875 86.710938 254.738281 Z M 75.226562 248.433594 L 83.015625 248.433594 C 85.257812 248.894531 87.503906 249.128906 89.8125 249.160156 L 84.960938 254.011719 C 81.5625 252.460938 78.292969 250.613281 75.226562 248.433594 Z M 75.226562 248.433594 " fill-opacity="1" fill-rule="nonzero"/><g fill="#ffffff" fill-opacity="1"><g transform="translate(185.092637, 211.406854)"><g><path d="M 15.667969 0.78125 C 24.144531 0.78125 29.644531 -2.953125 29.644531 -9.613281 C 29.644531 -16.472656 23.789062 -18.972656 17.484375 -20.132812 C 11.730469 -21.066406 8.878906 -22.378906 8.878906 -25.253906 C 8.878906 -27.421875 10.167969 -29.617188 15.363281 -29.617188 C 20.03125 -29.617188 22.074219 -27.472656 22.074219 -24.824219 L 28.355469 -24.824219 C 28.355469 -30.980469 23.992188 -35.117188 15.441406 -35.117188 C 6.535156 -35.117188 2.597656 -30.855469 2.597656 -25.277344 C 2.597656 -18.164062 9.636719 -16.09375 15.390625 -14.910156 C 20.15625 -14 23.285156 -12.816406 23.285156 -9.636719 C 23.285156 -6.230469 20.789062 -4.515625 15.640625 -4.515625 C 10.796875 -4.515625 7.996094 -7.089844 7.996094 -10.292969 L 1.714844 -10.292969 C 1.714844 -4.917969 5.753906 0.78125 15.667969 0.78125 Z M 15.667969 0.78125 "/></g></g></g><g fill="#ffffff" fill-opacity="1"><g transform="translate(216.321899, 211.406854)"><g><path d="M 20.15625 0.730469 C 30.375 0.730469 38.675781 -7.242188 38.675781 -17.207031 C 38.675781 -27.171875 30.375 -35.117188 20.15625 -35.117188 C 9.941406 -35.117188 1.664062 -27.171875 1.664062 -17.207031 C 1.664062 -7.242188 9.941406 0.730469 20.15625 0.730469 Z M 20.15625 -5.046875 C 13.421875 -5.046875 7.945312 -10.21875 7.945312 -17.179688 C 7.945312 -24.167969 13.394531 -29.367188 20.15625 -29.367188 C 26.945312 -29.367188 32.417969 -24.195312 32.417969 -17.179688 C 32.417969 -10.21875 26.945312 -5.046875 20.15625 -5.046875 Z M 20.15625 -5.046875 "/></g></g></g><g fill="#ffffff" fill-opacity="1"><g transform="translate(256.657602, 211.406854)"><g><path d="M 25.859375 0 L 25.859375 -5.625 L 10.367188 -5.625 L 10.367188 -34.308594 L 4.085938 -34.308594 L 4.085938 0 Z M 25.859375 0 "/></g></g></g><g fill="#ffffff" fill-opacity="1"><g transform="translate(283.522849, 211.406854)"><g><path d="M 19.777344 0.730469 C 31.003906 0.730469 37.464844 -7.214844 37.386719 -18.46875 L 19.476562 -18.46875 L 19.476562 -13.21875 L 30.578125 -13.21875 C 29.617188 -8.425781 25.859375 -5.046875 19.730469 -5.046875 C 13.246094 -5.046875 7.945312 -9.738281 7.945312 -17.179688 C 7.945312 -24.496094 13.246094 -29.367188 19.730469 -29.367188 C 24.597656 -29.367188 28.433594 -26.996094 30.222656 -22.984375 L 36.605469 -22.984375 C 34.992188 -30.703125 27.144531 -35.117188 19.878906 -35.117188 C 9.789062 -35.117188 1.691406 -27.171875 1.691406 -17.179688 C 1.691406 -7.265625 9.789062 0.730469 19.777344 0.730469 Z M 19.777344 0.730469 "/></g></g></g><g fill="#ffffff" fill-opacity="1"><g transform="translate(322.597275, 211.406854)"><g><path d="M 10.367188 0 L 10.367188 -34.308594 L 4.085938 -34.308594 L 4.085938 0 Z M 10.367188 0 "/></g></g></g><g fill="#ffffff" fill-opacity="1"><g transform="translate(337.026304, 211.406854)"><g><path d="M 15.667969 0.78125 C 24.144531 0.78125 29.644531 -2.953125 29.644531 -9.613281 C 29.644531 -16.472656 23.789062 -18.972656 17.484375 -20.132812 C 11.730469 -21.066406 8.878906 -22.378906 8.878906 -25.253906 C 8.878906 -27.421875 10.167969 -29.617188 15.363281 -29.617188 C 20.03125 -29.617188 22.074219 -27.472656 22.074219 -24.824219 L 28.355469 -24.824219 C 28.355469 -30.980469 23.992188 -35.117188 15.441406 -35.117188 C 6.535156 -35.117188 2.597656 -30.855469 2.597656 -25.277344 C 2.597656 -18.164062 9.636719 -16.09375 15.390625 -14.910156 C 20.15625 -14 23.285156 -12.816406 23.285156 -9.636719 C 23.285156 -6.230469 20.789062 -4.515625 15.640625 -4.515625 C 10.796875 -4.515625 7.996094 -7.089844 7.996094 -10.292969 L 1.714844 -10.292969 C 1.714844 -4.917969 5.753906 0.78125 15.667969 0.78125 Z M 15.667969 0.78125 "/></g></g></g></svg>