<svg xmlns="http://www.w3.org/2000/svg" xmlns:xlink="http://www.w3.org/1999/xlink" width="450" zoomAndPan="magnify" viewBox="0 0 337.5 97.5" height="130" preserveAspectRatio="xMidYMid meet" version="1.0"><defs><g/><clipPath id="6eb83ccaa9"><path d="M 0.882812 0.378906 L 97.886719 0.378906 L 97.886719 87 L 0.882812 87 Z M 0.882812 0.378906 " clip-rule="nonzero"/></clipPath><clipPath id="7bb98a7e40"><path d="M 52.503906 86.367188 C 41.582031 82.035156 33.863281 71.382812 33.863281 58.90625 C 33.863281 42.601562 47.078125 29.386719 63.386719 29.386719 C 73.199219 29.386719 81.886719 34.167969 87.269531 41.53125 L 93.410156 41.53125 C 90.574219 36.636719 86.550781 32.496094 81.75 29.484375 C 81.789062 29.484375 81.808594 29.484375 81.828125 29.503906 L 83.460938 23.984375 L 86.046875 15.277344 L 82.003906 23.402344 L 79.613281 28.222656 C 79.632812 28.222656 79.652344 28.261719 79.652344 28.277344 C 75.179688 25.910156 70.148438 24.488281 64.804688 24.277344 L 64.203125 13.800781 L 63.425781 0.351562 L 62.648438 13.800781 L 62.042969 24.277344 C 56.738281 24.488281 51.761719 25.890625 47.332031 28.222656 L 43.367188 24.042969 L 37.128906 17.453125 L 42.144531 25.015625 L 45.117188 29.484375 C 40.707031 32.242188 36.953125 35.957031 34.15625 40.367188 L 28.695312 38.753906 L 19.949219 36.148438 L 28.074219 40.191406 L 32.816406 42.5625 C 30.308594 47.246094 28.851562 52.570312 28.734375 58.226562 L 16.898438 58.945312 L 0.90625 59.917969 L 16.957031 60.519531 L 28.792969 60.96875 C 29.085938 66.039062 30.464844 70.820312 32.71875 75.078125 L 28.695312 78.886719 L 22.105469 85.125 L 29.667969 80.109375 L 33.980469 77.253906 C 35.59375 79.816406 45.195312 87.4375 52.503906 86.367188 Z M 92.945312 58.90625 C 92.945312 63.28125 91.992188 67.417969 90.300781 71.132812 L 95.859375 71.132812 C 97.296875 67.320312 98.074219 63.203125 98.074219 58.90625 C 98.074219 54.59375 97.296875 50.472656 95.859375 46.683594 L 90.300781 46.683594 C 91.992188 50.414062 92.945312 54.554688 92.945312 58.90625 Z M 92.945312 58.90625 " clip-rule="nonzero"/></clipPath><linearGradient x1="24781.275761" gradientTransform="matrix(0.00633547, 0, 0, -0.00633547, -122.210304, -148.743652)" y1="-39349.273105" x2="31401.789204" gradientUnits="userSpaceOnUse" y2="-22245.359091" id="13fe69a8e6"><stop stop-opacity="1" stop-color="rgb(94.099426%, 37.599182%, 31.399536%)" offset="0"/><stop stop-opacity="1" stop-color="rgb(94.099426%, 37.599182%, 31.399536%)" offset="0.125"/><stop stop-opacity="1" stop-color="rgb(94.099426%, 37.599182%, 31.399536%)" offset="0.1875"/><stop stop-opacity="1" stop-color="rgb(94.099426%, 37.599182%, 31.399536%)" offset="0.203125"/><stop stop-opacity="1" stop-color="rgb(94.110107%, 37.759399%, 31.32782%)" offset="0.210938"/><stop stop-opacity="1" stop-color="rgb(94.139099%, 38.200378%, 31.129456%)" offset="0.214844"/><stop stop-opacity="1" stop-color="rgb(94.15741%, 38.48114%, 31.004333%)" offset="0.21875"/><stop stop-opacity="1" stop-color="rgb(94.17572%, 38.761902%, 30.877686%)" offset="0.222656"/><stop stop-opacity="1" stop-color="rgb(94.194031%, 39.042664%, 30.751038%)" offset="0.226563"/><stop stop-opacity="1" stop-color="rgb(94.212341%, 39.323425%, 30.62439%)" offset="0.230469"/><stop stop-opacity="1" stop-color="rgb(94.230652%, 39.604187%, 30.499268%)" offset="0.234375"/><stop stop-opacity="1" stop-color="rgb(94.248962%, 39.884949%, 30.37262%)" offset="0.238281"/><stop stop-opacity="1" stop-color="rgb(94.267273%, 40.16571%, 30.247498%)" offset="0.242188"/><stop stop-opacity="1" stop-color="rgb(94.285583%, 40.446472%, 30.12085%)" offset="0.246094"/><stop stop-opacity="1" stop-color="rgb(94.303894%, 40.727234%, 29.995728%)" offset="0.25"/><stop stop-opacity="1" stop-color="rgb(94.322205%, 41.00647%, 29.86908%)" offset="0.253906"/><stop stop-opacity="1" stop-color="rgb(94.340515%, 41.287231%, 29.743958%)" offset="0.257812"/><stop stop-opacity="1" stop-color="rgb(94.358826%, 41.567993%, 29.61731%)" offset="0.261719"/><stop stop-opacity="1" stop-color="rgb(94.377136%, 41.848755%, 29.492188%)" offset="0.265625"/><stop stop-opacity="1" stop-color="rgb(94.395447%, 42.129517%, 29.36554%)" offset="0.269531"/><stop stop-opacity="1" stop-color="rgb(94.413757%, 42.410278%, 29.240417%)" offset="0.273438"/><stop stop-opacity="1" stop-color="rgb(94.432068%, 42.69104%, 29.11377%)" offset="0.277344"/><stop stop-opacity="1" stop-color="rgb(94.450378%, 42.971802%, 28.988647%)" offset="0.28125"/><stop stop-opacity="1" stop-color="rgb(94.468689%, 43.252563%, 28.862%)" offset="0.285156"/><stop stop-opacity="1" stop-color="rgb(94.487%, 43.533325%, 28.736877%)" offset="0.289062"/><stop stop-opacity="1" stop-color="rgb(94.50531%, 43.814087%, 28.610229%)" offset="0.292969"/><stop stop-opacity="1" stop-color="rgb(94.523621%, 44.094849%, 28.485107%)" offset="0.296875"/><stop stop-opacity="1" stop-color="rgb(94.541931%, 44.37561%, 28.358459%)" offset="0.300781"/><stop stop-opacity="1" stop-color="rgb(94.560242%, 44.656372%, 28.233337%)" offset="0.304688"/><stop stop-opacity="1" stop-color="rgb(94.578552%, 44.937134%, 28.106689%)" offset="0.308594"/><stop stop-opacity="1" stop-color="rgb(94.596863%, 45.217896%, 27.981567%)" offset="0.3125"/><stop stop-opacity="1" stop-color="rgb(94.615173%, 45.497131%, 27.854919%)" offset="0.316406"/><stop stop-opacity="1" stop-color="rgb(94.63501%, 45.777893%, 27.729797%)" offset="0.320312"/><stop stop-opacity="1" stop-color="rgb(94.65332%, 46.058655%, 27.603149%)" offset="0.324219"/><stop stop-opacity="1" stop-color="rgb(94.671631%, 46.339417%, 27.478027%)" offset="0.328125"/><stop stop-opacity="1" stop-color="rgb(94.689941%, 46.620178%, 27.351379%)" offset="0.332031"/><stop stop-opacity="1" stop-color="rgb(94.708252%, 46.90094%, 27.226257%)" offset="0.335938"/><stop stop-opacity="1" stop-color="rgb(94.726562%, 47.181702%, 27.099609%)" offset="0.339844"/><stop stop-opacity="1" stop-color="rgb(94.744873%, 47.462463%, 26.974487%)" offset="0.34375"/><stop stop-opacity="1" stop-color="rgb(94.763184%, 47.743225%, 26.847839%)" offset="0.347656"/><stop stop-opacity="1" stop-color="rgb(94.781494%, 48.023987%, 26.722717%)" offset="0.351563"/><stop stop-opacity="1" stop-color="rgb(94.799805%, 48.304749%, 26.596069%)" offset="0.355469"/><stop stop-opacity="1" stop-color="rgb(94.818115%, 48.58551%, 26.470947%)" offset="0.359375"/><stop stop-opacity="1" stop-color="rgb(94.836426%, 48.866272%, 26.344299%)" offset="0.363281"/><stop stop-opacity="1" stop-color="rgb(94.854736%, 49.147034%, 26.219177%)" offset="0.367188"/><stop stop-opacity="1" stop-color="rgb(94.873047%, 49.427795%, 26.092529%)" offset="0.371094"/><stop stop-opacity="1" stop-color="rgb(94.891357%, 49.708557%, 25.967407%)" offset="0.375"/><stop stop-opacity="1" stop-color="rgb(94.909668%, 49.989319%, 25.840759%)" offset="0.378906"/><stop stop-opacity="1" stop-color="rgb(94.927979%, 50.270081%, 25.715637%)" offset="0.382812"/><stop stop-opacity="1" stop-color="rgb(94.946289%, 50.549316%, 25.588989%)" offset="0.386719"/><stop stop-opacity="1" stop-color="rgb(94.9646%, 50.830078%, 25.463867%)" offset="0.390625"/><stop stop-opacity="1" stop-color="rgb(94.98291%, 51.11084%, 25.337219%)" offset="0.394531"/><stop stop-opacity="1" stop-color="rgb(95.001221%, 51.391602%, 25.212097%)" offset="0.398438"/><stop stop-opacity="1" stop-color="rgb(95.019531%, 51.672363%, 25.085449%)" offset="0.402344"/><stop stop-opacity="1" stop-color="rgb(95.037842%, 51.953125%, 24.960327%)" offset="0.40625"/><stop stop-opacity="1" stop-color="rgb(95.056152%, 52.233887%, 24.833679%)" offset="0.410156"/><stop stop-opacity="1" stop-color="rgb(95.074463%, 52.514648%, 24.708557%)" offset="0.414063"/><stop stop-opacity="1" stop-color="rgb(95.092773%, 52.79541%, 24.581909%)" offset="0.417969"/><stop stop-opacity="1" stop-color="rgb(95.111084%, 53.076172%, 24.456787%)" offset="0.421875"/><stop stop-opacity="1" stop-color="rgb(95.129395%, 53.356934%, 24.330139%)" offset="0.425781"/><stop stop-opacity="1" stop-color="rgb(95.147705%, 53.637695%, 24.205017%)" offset="0.429688"/><stop stop-opacity="1" stop-color="rgb(95.166016%, 53.918457%, 24.078369%)" offset="0.433594"/><stop stop-opacity="1" stop-color="rgb(95.185852%, 54.199219%, 23.953247%)" offset="0.4375"/><stop stop-opacity="1" stop-color="rgb(95.204163%, 54.47998%, 23.826599%)" offset="0.441406"/><stop stop-opacity="1" stop-color="rgb(95.222473%, 54.760742%, 23.701477%)" offset="0.445313"/><stop stop-opacity="1" stop-color="rgb(95.240784%, 55.039978%, 23.574829%)" offset="0.449219"/><stop stop-opacity="1" stop-color="rgb(95.259094%, 55.32074%, 23.449707%)" offset="0.453125"/><stop stop-opacity="1" stop-color="rgb(95.277405%, 55.601501%, 23.323059%)" offset="0.457031"/><stop stop-opacity="1" stop-color="rgb(95.295715%, 55.882263%, 23.197937%)" offset="0.460938"/><stop stop-opacity="1" stop-color="rgb(95.314026%, 56.163025%, 23.071289%)" offset="0.464844"/><stop stop-opacity="1" stop-color="rgb(95.332336%, 56.443787%, 22.946167%)" offset="0.46875"/><stop stop-opacity="1" stop-color="rgb(95.350647%, 56.724548%, 22.819519%)" offset="0.472656"/><stop stop-opacity="1" stop-color="rgb(95.368958%, 57.00531%, 22.692871%)" offset="0.476562"/><stop stop-opacity="1" stop-color="rgb(95.387268%, 57.286072%, 22.566223%)" offset="0.480469"/><stop stop-opacity="1" stop-color="rgb(95.405579%, 57.566833%, 22.441101%)" offset="0.484375"/><stop stop-opacity="1" stop-color="rgb(95.423889%, 57.847595%, 22.314453%)" offset="0.488281"/><stop stop-opacity="1" stop-color="rgb(95.4422%, 58.128357%, 22.189331%)" offset="0.492188"/><stop stop-opacity="1" stop-color="rgb(95.46051%, 58.409119%, 22.062683%)" offset="0.496094"/><stop stop-opacity="1" stop-color="rgb(95.478821%, 58.68988%, 21.937561%)" offset="0.5"/><stop stop-opacity="1" stop-color="rgb(95.497131%, 58.970642%, 21.810913%)" offset="0.503906"/><stop stop-opacity="1" stop-color="rgb(95.515442%, 59.251404%, 21.685791%)" offset="0.507813"/><stop stop-opacity="1" stop-color="rgb(95.533752%, 59.532166%, 21.559143%)" offset="0.511719"/><stop stop-opacity="1" stop-color="rgb(95.552063%, 59.812927%, 21.434021%)" offset="0.515625"/><stop stop-opacity="1" stop-color="rgb(95.570374%, 60.092163%, 21.307373%)" offset="0.519531"/><stop stop-opacity="1" stop-color="rgb(95.588684%, 60.372925%, 21.182251%)" offset="0.523438"/><stop stop-opacity="1" stop-color="rgb(95.606995%, 60.653687%, 21.055603%)" offset="0.527344"/><stop stop-opacity="1" stop-color="rgb(95.625305%, 60.934448%, 20.930481%)" offset="0.53125"/><stop stop-opacity="1" stop-color="rgb(95.643616%, 61.21521%, 20.803833%)" offset="0.535156"/><stop stop-opacity="1" stop-color="rgb(95.661926%, 61.495972%, 20.678711%)" offset="0.539062"/><stop stop-opacity="1" stop-color="rgb(95.680237%, 61.776733%, 20.552063%)" offset="0.542969"/><stop stop-opacity="1" stop-color="rgb(95.700073%, 62.057495%, 20.426941%)" offset="0.546875"/><stop stop-opacity="1" stop-color="rgb(95.718384%, 62.338257%, 20.300293%)" offset="0.550781"/><stop stop-opacity="1" stop-color="rgb(95.736694%, 62.619019%, 20.175171%)" offset="0.554688"/><stop stop-opacity="1" stop-color="rgb(95.755005%, 62.89978%, 20.048523%)" offset="0.558594"/><stop stop-opacity="1" stop-color="rgb(95.773315%, 63.180542%, 19.923401%)" offset="0.5625"/><stop stop-opacity="1" stop-color="rgb(95.791626%, 63.461304%, 19.796753%)" offset="0.566406"/><stop stop-opacity="1" stop-color="rgb(95.809937%, 63.742065%, 19.671631%)" offset="0.570312"/><stop stop-opacity="1" stop-color="rgb(95.828247%, 64.022827%, 19.544983%)" offset="0.574219"/><stop stop-opacity="1" stop-color="rgb(95.846558%, 64.303589%, 19.419861%)" offset="0.578125"/><stop stop-opacity="1" stop-color="rgb(95.864868%, 64.582825%, 19.293213%)" offset="0.582031"/><stop stop-opacity="1" stop-color="rgb(95.883179%, 64.863586%, 19.168091%)" offset="0.585938"/><stop stop-opacity="1" stop-color="rgb(95.901489%, 65.144348%, 19.041443%)" offset="0.589844"/><stop stop-opacity="1" stop-color="rgb(95.9198%, 65.42511%, 18.916321%)" offset="0.59375"/><stop stop-opacity="1" stop-color="rgb(95.93811%, 65.705872%, 18.789673%)" offset="0.597656"/><stop stop-opacity="1" stop-color="rgb(95.956421%, 65.986633%, 18.664551%)" offset="0.601562"/><stop stop-opacity="1" stop-color="rgb(95.974731%, 66.267395%, 18.537903%)" offset="0.605469"/><stop stop-opacity="1" stop-color="rgb(95.993042%, 66.548157%, 18.412781%)" offset="0.609375"/><stop stop-opacity="1" stop-color="rgb(96.011353%, 66.828918%, 18.286133%)" offset="0.613281"/><stop stop-opacity="1" stop-color="rgb(96.029663%, 67.10968%, 18.161011%)" offset="0.617188"/><stop stop-opacity="1" stop-color="rgb(96.047974%, 67.390442%, 18.034363%)" offset="0.621094"/><stop stop-opacity="1" stop-color="rgb(96.066284%, 67.671204%, 17.909241%)" offset="0.625"/><stop stop-opacity="1" stop-color="rgb(96.084595%, 67.951965%, 17.782593%)" offset="0.628906"/><stop stop-opacity="1" stop-color="rgb(96.102905%, 68.232727%, 17.657471%)" offset="0.632812"/><stop stop-opacity="1" stop-color="rgb(96.121216%, 68.513489%, 17.530823%)" offset="0.636719"/><stop stop-opacity="1" stop-color="rgb(96.139526%, 68.79425%, 17.405701%)" offset="0.640625"/><stop stop-opacity="1" stop-color="rgb(96.157837%, 69.075012%, 17.279053%)" offset="0.644531"/><stop stop-opacity="1" stop-color="rgb(96.176147%, 69.355774%, 17.153931%)" offset="0.648438"/><stop stop-opacity="1" stop-color="rgb(96.194458%, 69.63501%, 17.027283%)" offset="0.652344"/><stop stop-opacity="1" stop-color="rgb(96.212769%, 69.915771%, 16.902161%)" offset="0.65625"/><stop stop-opacity="1" stop-color="rgb(96.231079%, 70.196533%, 16.775513%)" offset="0.660156"/><stop stop-opacity="1" stop-color="rgb(96.250916%, 70.477295%, 16.650391%)" offset="0.664063"/><stop stop-opacity="1" stop-color="rgb(96.269226%, 70.758057%, 16.523743%)" offset="0.667969"/><stop stop-opacity="1" stop-color="rgb(96.287537%, 71.038818%, 16.398621%)" offset="0.671875"/><stop stop-opacity="1" stop-color="rgb(96.305847%, 71.31958%, 16.271973%)" offset="0.675781"/><stop stop-opacity="1" stop-color="rgb(96.324158%, 71.600342%, 16.146851%)" offset="0.679688"/><stop stop-opacity="1" stop-color="rgb(96.342468%, 71.881104%, 16.020203%)" offset="0.683594"/><stop stop-opacity="1" stop-color="rgb(96.360779%, 72.161865%, 15.895081%)" offset="0.6875"/><stop stop-opacity="1" stop-color="rgb(96.379089%, 72.442627%, 15.768433%)" offset="0.691406"/><stop stop-opacity="1" stop-color="rgb(96.3974%, 72.723389%, 15.643311%)" offset="0.695312"/><stop stop-opacity="1" stop-color="rgb(96.41571%, 73.00415%, 15.516663%)" offset="0.699219"/><stop stop-opacity="1" stop-color="rgb(96.434021%, 73.284912%, 15.391541%)" offset="0.703125"/><stop stop-opacity="1" stop-color="rgb(96.452332%, 73.565674%, 15.264893%)" offset="0.707031"/><stop stop-opacity="1" stop-color="rgb(96.470642%, 73.846436%, 15.139771%)" offset="0.710938"/><stop stop-opacity="1" stop-color="rgb(96.488953%, 74.125671%, 15.013123%)" offset="0.714844"/><stop stop-opacity="1" stop-color="rgb(96.507263%, 74.406433%, 14.888%)" offset="0.71875"/><stop stop-opacity="1" stop-color="rgb(96.525574%, 74.687195%, 14.761353%)" offset="0.722656"/><stop stop-opacity="1" stop-color="rgb(96.543884%, 74.967957%, 14.63623%)" offset="0.726562"/><stop stop-opacity="1" stop-color="rgb(96.562195%, 75.248718%, 14.509583%)" offset="0.730469"/><stop stop-opacity="1" stop-color="rgb(96.580505%, 75.52948%, 14.382935%)" offset="0.734375"/><stop stop-opacity="1" stop-color="rgb(96.598816%, 75.810242%, 14.256287%)" offset="0.738281"/><stop stop-opacity="1" stop-color="rgb(96.617126%, 76.091003%, 14.131165%)" offset="0.742188"/><stop stop-opacity="1" stop-color="rgb(96.635437%, 76.371765%, 14.004517%)" offset="0.746094"/><stop stop-opacity="1" stop-color="rgb(96.653748%, 76.652527%, 13.879395%)" offset="0.75"/><stop stop-opacity="1" stop-color="rgb(96.672058%, 76.933289%, 13.752747%)" offset="0.753906"/><stop stop-opacity="1" stop-color="rgb(96.690369%, 77.21405%, 13.627625%)" offset="0.757813"/><stop stop-opacity="1" stop-color="rgb(96.708679%, 77.494812%, 13.500977%)" offset="0.761719"/><stop stop-opacity="1" stop-color="rgb(96.72699%, 77.775574%, 13.375854%)" offset="0.765625"/><stop stop-opacity="1" stop-color="rgb(96.7453%, 78.056335%, 13.249207%)" offset="0.769531"/><stop stop-opacity="1" stop-color="rgb(96.763611%, 78.337097%, 13.124084%)" offset="0.773438"/><stop stop-opacity="1" stop-color="rgb(96.781921%, 78.616333%, 12.997437%)" offset="0.777344"/><stop stop-opacity="1" stop-color="rgb(96.801758%, 78.897095%, 12.872314%)" offset="0.78125"/><stop stop-opacity="1" stop-color="rgb(96.820068%, 79.177856%, 12.745667%)" offset="0.785156"/><stop stop-opacity="1" stop-color="rgb(96.838379%, 79.458618%, 12.620544%)" offset="0.789063"/><stop stop-opacity="1" stop-color="rgb(96.856689%, 79.73938%, 12.493896%)" offset="0.792969"/><stop stop-opacity="1" stop-color="rgb(96.875%, 80.020142%, 12.368774%)" offset="0.796875"/><stop stop-opacity="1" stop-color="rgb(96.887207%, 80.209351%, 12.283325%)" offset="0.8125"/><stop stop-opacity="1" stop-color="rgb(96.899414%, 80.39856%, 12.199402%)" offset="0.875"/><stop stop-opacity="1" stop-color="rgb(96.899414%, 80.39856%, 12.199402%)" offset="1"/></linearGradient><clipPath id="61edcb62a1"><path d="M 38 76 L 94 76 L 94 95.863281 L 38 95.863281 Z M 38 76 " clip-rule="nonzero"/></clipPath></defs><g clip-path="url(#6eb83ccaa9)"><g clip-path="url(#7bb98a7e40)"><path fill="url(#13fe69a8e6)" d="M 0.90625 87.4375 L 0.90625 0.378906 L 97.886719 0.378906 L 97.886719 87.4375 Z M 0.90625 87.4375 " fill-rule="nonzero"/></g></g><g clip-path="url(#61edcb62a1)"><path fill="#000f52" d="M 38.839844 83.917969 C 40.976562 86.09375 43.503906 87.765625 46.265625 88.835938 L 43.796875 88.835938 C 42.007812 87.398438 40.335938 85.765625 38.839844 83.917969 Z M 78.953125 76.398438 L 72.304688 83.042969 L 69.992188 83.042969 C 71.664062 81.121094 73.003906 78.886719 73.898438 76.4375 Z M 87.65625 76.339844 L 80.953125 83.042969 L 73.761719 83.042969 L 80.410156 76.378906 Z M 90.027344 83.042969 L 82.410156 83.042969 L 89.136719 76.320312 L 93.972656 76.28125 C 92.90625 78.710938 91.582031 80.984375 90.027344 83.042969 Z M 75.570312 89.886719 L 83.011719 89.886719 C 79.203125 92.625 74.792969 94.53125 70.050781 95.402344 Z M 76.601562 88.855469 L 81.382812 84.074219 L 89.230469 84.074219 C 87.773438 85.84375 86.160156 87.4375 84.394531 88.855469 Z M 67.953125 88.855469 L 72.734375 84.074219 L 79.921875 84.074219 L 75.144531 88.855469 Z M 66.496094 88.855469 L 61.734375 88.855469 C 64.472656 87.785156 66.960938 86.132812 69.019531 84.074219 L 71.273438 84.074219 Z M 60.996094 95.8125 L 66.921875 89.886719 L 74.113281 89.886719 L 68.320312 95.675781 C 65.851562 95.988281 63.40625 96.027344 60.996094 95.8125 Z M 51.9375 93.597656 L 55.261719 90.273438 C 56.253906 90.214844 57.261719 90.078125 58.253906 89.886719 L 65.464844 89.886719 L 59.691406 95.65625 C 57.03125 95.289062 54.425781 94.589844 51.9375 93.597656 Z M 45.175781 89.886719 L 49.761719 89.886719 C 51.082031 90.15625 52.40625 90.292969 53.765625 90.3125 L 50.910156 93.167969 C 48.90625 92.253906 46.984375 91.167969 45.175781 89.886719 Z M 45.175781 89.886719 " fill-opacity="1" fill-rule="nonzero"/></g><g fill="#000f52" fill-opacity="1"><g transform="translate(115.64956, 68.855197)"><g><path d="M 9.222656 0.460938 C 14.214844 0.460938 17.453125 -1.738281 17.453125 -5.660156 C 17.453125 -9.699219 14.007812 -11.171875 10.292969 -11.855469 C 6.90625 -12.402344 5.230469 -13.175781 5.230469 -14.867188 C 5.230469 -16.148438 5.984375 -17.4375 9.046875 -17.4375 C 11.792969 -17.4375 12.996094 -16.175781 12.996094 -14.617188 L 16.695312 -14.617188 C 16.695312 -18.242188 14.125 -20.675781 9.089844 -20.675781 C 3.847656 -20.675781 1.53125 -18.167969 1.53125 -14.882812 C 1.53125 -10.695312 5.675781 -9.476562 9.0625 -8.777344 C 11.867188 -8.242188 13.710938 -7.546875 13.710938 -5.675781 C 13.710938 -3.667969 12.238281 -2.660156 9.210938 -2.660156 C 6.359375 -2.660156 4.707031 -4.175781 4.707031 -6.058594 L 1.011719 -6.058594 C 1.011719 -2.898438 3.386719 0.460938 9.222656 0.460938 Z M 9.222656 0.460938 "/></g></g></g><g fill="#000f52" fill-opacity="1"><g transform="translate(134.03714, 68.855197)"><g><path d="M 11.867188 0.429688 C 17.882812 0.429688 22.773438 -4.261719 22.773438 -10.128906 C 22.773438 -15.996094 17.882812 -20.675781 11.867188 -20.675781 C 5.851562 -20.675781 0.980469 -15.996094 0.980469 -10.128906 C 0.980469 -4.261719 5.851562 0.429688 11.867188 0.429688 Z M 11.867188 -2.972656 C 7.902344 -2.972656 4.679688 -6.015625 4.679688 -10.117188 C 4.679688 -14.230469 7.886719 -17.289062 11.867188 -17.289062 C 15.863281 -17.289062 19.085938 -14.246094 19.085938 -10.117188 C 19.085938 -6.015625 15.863281 -2.972656 11.867188 -2.972656 Z M 11.867188 -2.972656 "/></g></g></g><g fill="#000f52" fill-opacity="1"><g transform="translate(157.786533, 68.855197)"><g><path d="M 15.226562 0 L 15.226562 -3.3125 L 6.105469 -3.3125 L 6.105469 -20.203125 L 2.40625 -20.203125 L 2.40625 0 Z M 15.226562 0 "/></g></g></g><g fill="#000f52" fill-opacity="1"><g transform="translate(173.604611, 68.855197)"><g><path d="M 11.644531 0.429688 C 18.257812 0.429688 22.058594 -4.25 22.015625 -10.875 L 11.46875 -10.875 L 11.46875 -7.785156 L 18.003906 -7.785156 C 17.4375 -4.960938 15.226562 -2.972656 11.617188 -2.972656 C 7.796875 -2.972656 4.679688 -5.734375 4.679688 -10.117188 C 4.679688 -14.421875 7.796875 -17.289062 11.617188 -17.289062 C 14.484375 -17.289062 16.742188 -15.894531 17.796875 -13.53125 L 21.554688 -13.53125 C 20.601562 -18.078125 15.984375 -20.675781 11.707031 -20.675781 C 5.761719 -20.675781 0.996094 -15.996094 0.996094 -10.117188 C 0.996094 -4.277344 5.761719 0.429688 11.644531 0.429688 Z M 11.644531 0.429688 "/></g></g></g><g fill="#000f52" fill-opacity="1"><g transform="translate(196.611371, 68.855197)"><g><path d="M 6.105469 0 L 6.105469 -20.203125 L 2.40625 -20.203125 L 2.40625 0 Z M 6.105469 0 "/></g></g></g><g fill="#000f52" fill-opacity="1"><g transform="translate(205.107087, 68.855197)"><g><path d="M 9.222656 0.460938 C 14.214844 0.460938 17.453125 -1.738281 17.453125 -5.660156 C 17.453125 -9.699219 14.007812 -11.171875 10.292969 -11.855469 C 6.90625 -12.402344 5.230469 -13.175781 5.230469 -14.867188 C 5.230469 -16.148438 5.984375 -17.4375 9.046875 -17.4375 C 11.792969 -17.4375 12.996094 -16.175781 12.996094 -14.617188 L 16.695312 -14.617188 C 16.695312 -18.242188 14.125 -20.675781 9.089844 -20.675781 C 3.847656 -20.675781 1.53125 -18.167969 1.53125 -14.882812 C 1.53125 -10.695312 5.675781 -9.476562 9.0625 -8.777344 C 11.867188 -8.242188 13.710938 -7.546875 13.710938 -5.675781 C 13.710938 -3.667969 12.238281 -2.660156 9.210938 -2.660156 C 6.359375 -2.660156 4.707031 -4.175781 4.707031 -6.058594 L 1.011719 -6.058594 C 1.011719 -2.898438 3.386719 0.460938 9.222656 0.460938 Z M 9.222656 0.460938 "/></g></g></g></svg>